<svg width="21" height="18" viewBox="0 0 21 18" fill="none" xmlns="http://www.w3.org/2000/svg">
<path d="M11.7263 9.8073L12.0438 5.43543L13.339 2.32193H7.79883L9.09409 5.43543L9.41153 9.8073L9.51117 11.1859L9.51812 14.5793H11.6174L11.6244 11.1859L11.7263 9.8073Z" fill="url(#paint0_linear_205_1983)"/>
<path d="M18.7542 8.96532L14.7896 7.80643L15.9875 9.61763L14.1987 13.1036L16.5645 13.0735H20.0819L18.7542 8.96532Z" fill="url(#paint1_linear_205_1983)"/>
<path d="M6.35065 7.80643L2.38609 8.96532L1.06766 13.0735H4.58502L6.94383 13.1036L5.15503 9.61763L6.35065 7.80643Z" fill="url(#paint2_linear_205_1983)"/>
<path d="M12.1203 11.9979L11.6198 14.5817L11.9836 14.8315L14.1964 13.1035L14.2636 11.3687L12.1203 11.9979Z" fill="url(#paint3_linear_205_1983)"/>
<path d="M6.88132 11.3687L6.94156 13.1035L9.15439 14.8315L9.51818 14.5817L9.01768 11.9979L6.88132 11.3687Z" fill="url(#paint4_linear_205_1983)"/>
<path d="M19.5952 5.98827L20.2324 2.89559L19.2778 0.0249634L11.9836 5.43543L14.7061 7.87581L18.7541 8.96762L19.6254 7.9452L19.2453 7.67225L19.8524 7.11941L19.389 6.75624L19.9961 6.29361L19.5952 5.98827Z" fill="url(#paint5_linear_205_1983)"/>
<path d="M1.54501 5.98827L0.907806 2.89559L1.86245 0.0249634L9.15669 5.43543L6.43409 7.87581L2.38612 8.9653L1.51489 7.94289L1.89489 7.66994L1.28781 7.11709L1.75123 6.75393L1.14415 6.2913L1.54501 5.98827Z" fill="url(#paint6_linear_205_1983)"/>
<path d="M5.15271 9.61761L6.88127 11.3687L6.94151 13.1035L5.15271 9.61761Z" fill="url(#paint7_linear_205_1983)"/>
<path d="M15.9875 9.61761L14.1987 13.1035L14.2659 11.3687L15.9875 9.61761Z" fill="url(#paint8_linear_205_1983)"/>
<path d="M14.5532 16.0806L11.9836 14.8315L12.1875 16.5062L12.1643 17.2117L14.5532 16.0806Z" fill="#FF9F5A"/>
<path d="M6.58707 16.0805L8.976 17.2094L8.95978 16.5039L9.15673 14.8291L6.58707 16.0805Z" fill="#FF9F5A"/>
<path d="M16.5621 13.0735L14.5532 16.0806L18.8514 17.2626L20.0795 13.0735H16.5621Z" fill="url(#paint9_linear_205_1983)"/>
<path d="M1.06766 13.0735L2.28877 17.2626L6.58699 16.0806L4.58502 13.0735H1.06766Z" fill="url(#paint10_linear_205_1983)"/>
<path d="M1.86243 0.0249634L9.15666 5.43543L8.01201 2.32193L1.86243 0.0249634Z" fill="url(#paint11_linear_205_1983)"/>
<path d="M13.1282 2.32193L11.9836 5.43543L19.2778 0.0249634L13.1282 2.32193Z" fill="url(#paint12_linear_205_1983)"/>
<path d="M6.35065 7.80644L5.15271 9.61764L9.41386 9.80732L9.15666 5.43546L6.35065 7.80644Z" fill="url(#paint13_linear_205_1983)"/>
<path d="M14.7895 7.80644L11.9835 5.43546L11.7263 9.80732L15.9875 9.61764L14.7895 7.80644Z" fill="url(#paint14_linear_205_1983)"/>
<path d="M6.58707 16.0806L9.15673 14.8315L6.9439 13.1035L6.58707 16.0806Z" fill="#9383FA"/>
<path d="M11.9836 14.8315L14.5532 16.0806L14.1964 13.1035L11.9836 14.8315Z" fill="#9383FA"/>
<path d="M14.1987 13.1035L14.5556 16.0806L16.5645 13.0735L14.1987 13.1035Z" fill="url(#paint15_linear_205_1983)"/>
<path d="M6.94157 13.1035L6.58473 16.0806L4.57581 13.0735L6.94157 13.1035Z" fill="url(#paint16_linear_205_1983)"/>
<path d="M15.9875 9.61761L11.7263 9.80729L12.1202 11.9978L12.7505 10.6794L14.2659 11.3687L15.9875 9.61761Z" fill="#9C5ADD"/>
<path d="M6.88127 11.3687L8.3897 10.6794L9.01995 11.9978L9.41386 9.80729L5.15271 9.61761L6.88127 11.3687Z" fill="#9C5ADD"/>
<path d="M12.1203 11.9979L11.7264 9.80731L11.6267 11.186L11.6198 14.5817L12.1203 11.9979Z" fill="url(#paint17_linear_205_1983)"/>
<path d="M9.02002 11.9979L9.52051 14.5817L9.51356 11.186L9.41393 9.80731L9.02002 11.9979Z" fill="url(#paint18_linear_205_1983)"/>
<path d="M12.1805 17.2001L12.1898 16.5038L11.9998 16.3373H9.14048L8.95743 16.5038L8.97365 17.2094L6.58472 16.0805L7.41887 16.7629L9.11731 17.938H12.0206L13.7191 16.7629L14.5532 16.0805L12.1805 17.2001Z" fill="#DF7554"/>
<path d="M11.9835 14.8315L11.6197 14.5816H9.52046L9.15667 14.8315L8.95972 16.5062L9.14277 16.3396H11.9998L12.1898 16.5062L11.9835 14.8315Z" fill="#161616" stroke="#161616" stroke-width="0.00668686" stroke-miterlimit="10" stroke-linejoin="round"/>
<path d="M12.7505 10.6794L12.1202 11.9978L14.2659 11.3687L12.7505 10.6794Z" fill="#161616"/>
<path d="M8.38975 10.6794L9.02 11.9978L6.88132 11.3687L8.38975 10.6794Z" fill="#161616"/>
<defs>
<linearGradient id="paint0_linear_205_1983" x1="10.5701" y1="2.32082" x2="10.5701" y2="14.5805" gradientUnits="userSpaceOnUse">
<stop stop-color="#FB7FE4"/>
<stop offset="1" stop-color="#BCABFB"/>
</linearGradient>
<linearGradient id="paint1_linear_205_1983" x1="17.1393" y1="7.80661" x2="17.1393" y2="13.103" gradientUnits="userSpaceOnUse">
<stop stop-color="#B65FE5"/>
<stop offset="1" stop-color="#ADA2FC"/>
</linearGradient>
<linearGradient id="paint2_linear_205_1983" x1="4.00472" y1="7.80661" x2="4.00472" y2="13.103" gradientUnits="userSpaceOnUse">
<stop stop-color="#B65FE5"/>
<stop offset="1" stop-color="#ADA2FC"/>
</linearGradient>
<linearGradient id="paint3_linear_205_1983" x1="11.6201" y1="13.0992" x2="14.266" y2="13.0992" gradientUnits="userSpaceOnUse">
<stop stop-color="#C8A8F7"/>
<stop offset="1" stop-color="#BAAAFB"/>
</linearGradient>
<linearGradient id="paint4_linear_205_1983" x1="6.88185" y1="13.0992" x2="9.52015" y2="13.0992" gradientUnits="userSpaceOnUse">
<stop stop-color="#C8A8F7"/>
<stop offset="1" stop-color="#BAAAFB"/>
</linearGradient>
<linearGradient id="paint5_linear_205_1983" x1="13.3344" y1="7.76991" x2="21.1442" y2="3.25322" gradientUnits="userSpaceOnUse">
<stop stop-color="#541758"/>
<stop offset="0.4286" stop-color="#4F206C"/>
<stop offset="0.62" stop-color="#4D2577"/>
<stop offset="1" stop-color="#8B45B6"/>
</linearGradient>
<linearGradient id="paint6_linear_205_1983" x1="6.4016" y1="7.72852" x2="-0.325901" y2="2.07384" gradientUnits="userSpaceOnUse">
<stop stop-color="#541758"/>
<stop offset="0.4286" stop-color="#4F206C"/>
<stop offset="0.62" stop-color="#4D2577"/>
<stop offset="1" stop-color="#8B45B6"/>
</linearGradient>
<linearGradient id="paint7_linear_205_1983" x1="5.15329" y1="11.3603" x2="6.94246" y2="11.3603" gradientUnits="userSpaceOnUse">
<stop stop-color="#BA86F3"/>
<stop offset="0.5281" stop-color="#B786F4"/>
<stop offset="0.8987" stop-color="#AE86F5"/>
<stop offset="1" stop-color="#AA86F6"/>
</linearGradient>
<linearGradient id="paint8_linear_205_1983" x1="14.1978" y1="11.3603" x2="15.987" y2="11.3603" gradientUnits="userSpaceOnUse">
<stop stop-color="#BA86F3"/>
<stop offset="0.5281" stop-color="#B786F4"/>
<stop offset="0.8987" stop-color="#AE86F5"/>
<stop offset="1" stop-color="#AA86F6"/>
</linearGradient>
<linearGradient id="paint9_linear_205_1983" x1="17.3174" y1="13.0727" x2="17.3174" y2="17.2628" gradientUnits="userSpaceOnUse">
<stop stop-color="#906EF7"/>
<stop offset="1" stop-color="#575ADE"/>
</linearGradient>
<linearGradient id="paint10_linear_205_1983" x1="3.82656" y1="13.0727" x2="3.82656" y2="17.2628" gradientUnits="userSpaceOnUse">
<stop stop-color="#906EF7"/>
<stop offset="1" stop-color="#575ADE"/>
</linearGradient>
<linearGradient id="paint11_linear_205_1983" x1="1.86302" y1="2.72998" x2="9.1562" y2="2.72998" gradientUnits="userSpaceOnUse">
<stop stop-color="#BB65ED"/>
<stop offset="1" stop-color="#E560E3"/>
</linearGradient>
<linearGradient id="paint12_linear_205_1983" x1="11.984" y1="2.72998" x2="19.2772" y2="2.72998" gradientUnits="userSpaceOnUse">
<stop stop-color="#E560E3"/>
<stop offset="0.2946" stop-color="#DE61E5"/>
<stop offset="0.7098" stop-color="#CC63E9"/>
<stop offset="1" stop-color="#BB65ED"/>
</linearGradient>
<linearGradient id="paint13_linear_205_1983" x1="7.28362" y1="5.43502" x2="7.28362" y2="9.80699" gradientUnits="userSpaceOnUse">
<stop stop-color="#DC69E6"/>
<stop offset="1" stop-color="#C289F3"/>
</linearGradient>
<linearGradient id="paint14_linear_205_1983" x1="13.8566" y1="5.43502" x2="13.8566" y2="9.80699" gradientUnits="userSpaceOnUse">
<stop stop-color="#DC69E6"/>
<stop offset="1" stop-color="#C289F3"/>
</linearGradient>
<linearGradient id="paint15_linear_205_1983" x1="15.3805" y1="9.23862" x2="15.3805" y2="17.035" gradientUnits="userSpaceOnUse">
<stop stop-color="#6848BA"/>
<stop offset="0.3363" stop-color="#6356D5"/>
</linearGradient>
<linearGradient id="paint16_linear_205_1983" x1="5.75984" y1="13.0726" x2="5.75984" y2="16.0807" gradientUnits="userSpaceOnUse">
<stop stop-color="#6848BA"/>
<stop offset="0.3363" stop-color="#6356D5"/>
</linearGradient>
<linearGradient id="paint17_linear_205_1983" x1="11.8703" y1="14.5805" x2="11.8703" y2="9.80701" gradientUnits="userSpaceOnUse">
<stop stop-color="#BA86F3"/>
<stop offset="0.5281" stop-color="#B786F4"/>
<stop offset="0.8987" stop-color="#AE86F5"/>
<stop offset="1" stop-color="#AA86F6"/>
</linearGradient>
<linearGradient id="paint18_linear_205_1983" x1="9.01979" y1="12.1938" x2="9.52017" y2="12.1938" gradientUnits="userSpaceOnUse">
<stop stop-color="#BA86F3"/>
<stop offset="0.5281" stop-color="#B786F4"/>
<stop offset="0.8987" stop-color="#AE86F5"/>
<stop offset="1" stop-color="#AA86F6"/>
</linearGradient>
</defs>
</svg>
