<svg xmlns="http://www.w3.org/2000/svg" viewBox="0 0 340 602">
  <g>
    <g>
      <path d="M339,365V237h1V365ZM337,15.09,317,3H241L230.65,7H110.36L100,3H23L3,15.09V69H0V14H.39L0,13.33,22,0H317.74L340,13.36l-.37.64H340V69h-3ZM1,365H0V237H1ZM2.64,131,16,153.26V449L2.67,471,0,469.49,13,448V154L0,132.51Zm228,464L241,599H100l10.36-4ZM340,469.49l-2.66,1.5L324,449V153.26L337.36,131l2.63,1.5L327,154V448ZM3,586.91,23,599H317l20-12.09V533h3v55h-.38l.37.64L317.74,602H22L0,588.67.39,588H0V533H3Z" />
    </g>
  </g>
</svg>
