<svg xmlns="http://www.w3.org/2000/svg" viewBox="0 0 2449.89 1000.09">
  <g>
    <g>
      <path d="M2378,375.32,2449.89,500l-72.72,126h-143.4l-71.28,123.47,71.93,124.68-72.72,126H2016.25l-72-124.64H1802.06l-72,124.64H1584.66l-72-124.64H1369.81l-72,124.64H1152.4l-72-124.64H938.21l-72,124.64H720.81l-72-124.64H506L434,1000.09H288.56l-72-124.64H72.72L0,749.47l72.72-126,144.16-.17,70.78-122.92L215.47,375.35l71.86-124.49-72.16-125,33.36-57.6-.06-.06.23-.23L287.06,1.76l-.18-.3.49-.24.58-1H433.58l.13.24.12-.46.84.22h430.7l.06-.22.84.22h431.15l.14.24.12-.46.84.22h430.7l.06-.22.83.22h431.16l71.84,124.51h141.72v0h2.58v.44l.48.84.17,0,0,.16,71.88,124.52Zm-3.17,1H2234.51l137.54,238.23L2303.9,377.22l2.56-.74,68.3,239.27Zm-180.72,67.79-31.54,54.79,204.83,117.72ZM2369.39,614.7l-137-236.64-3.6,6.26-.26-.15-33.13,57.55ZM2193.65,440.16l26.4-45.58,6.64-11.5-.18-.11,3.84-6.65H1953.67Zm33.35-72-15.83-27.42-12.46-21.54-242,55.16h273.59l-3.51-6.07Zm-279.26,4.3,208.45-120.56H2017.34Zm67.51-122-69.44-120.29,0,240.67Zm-3.72,491.8-15.82-27.4c-3.93-6.8-8.17-14.12-12.46-21.55l-242,55.15h273.59l-3.51-6.07Zm-27.71-53.21,170-182.9L1946.94,625.49Zm172.4-187.68H2017.7l-69.56,120.35Zm-141-1.15-69.49-120.38,0,240.85Zm2.09-1.42H2157L1947.71,378.19Zm1.76,249.66,68.17-.09,70.25-240.56Zm133.57-237-167.5,179.93,32,55.13ZM2017,752.19l-3.59,6.25-.26-.15L1980,815.85l174,173Zm-12.4,16.55,6.66-11.54-.18-.1,3.84-6.65H1738.2l240,63.83Zm-22.81-78c-16.1-27.84-32.64-56.49-36.94-64l-208,120ZM1795.4,368.15l-15.87-27.49-12.41-21.47-242,55.16h273.6l-3.52-6.07Zm5.62,4.24,135.53-235L1769,317.26Zm-.18,5.67-3.6,6.26-.26-.15-33.13,57.55,173.94,173Zm139.62,236.49-68.15-237.33,2.56-.74,68.3,239.27,0-239.43H1802.92ZM1731.71,502.42l69.87,121h140.17ZM1943.2,374.16l0-237.09-69.41,237.18ZM1940.72,626H1801.87l-69.6,120.56Zm-141.16-1-69.22-119.9,0,239.89Zm136.21-8.37L1762.48,444.11l-31.55,54.79Zm-147.34-222,6.67-11.54-.18-.11,3.83-6.65H1522.08l240,63.84Zm-208.5,347.65-15.84-27.43-12.44-21.52-242,55.15h273.59l-3.51-6.07Zm-27.7-53.21,170-182.9L1515.35,625.49Zm172.4-187.68H1586.11l-69.56,120.35ZM1583.14,500,1513.5,379.66l0,241Zm-67-127.54,208.44-120.56H1585.75Zm67-121.74-69.58-120.53,0,241.14Zm-67,127.48,69.63,120.62h139.69Zm71.39,370.28,68.16-.09,70.26-240.56Zm133.57-237L1553.57,691.39l32,55.13ZM1585.37,752.19l-3.6,6.25-.26-.15-33.13,57.56,173.95,173ZM1573,768.74l6.66-11.54-.18-.1,3.83-6.65H1306.61l240,63.83Zm-22.82-78c-16.09-27.84-32.64-56.49-36.94-64l-208,120Zm-187-322.58-15.83-27.42-12.45-21.54-242,55.16h273.59l-3.51-6.07Zm5.62,4.24,135.52-235-167.5,179.92Zm-.19,5.67-3.59,6.26-.26-.15-33.14,57.55,174,173Zm139.63,236.49-68.15-237.33,2.56-.74,68.3,239.27,0-239.43H1370.66ZM1299.45,502.42l69.87,121H1509.5ZM1509.13,626H1370.28l-69.6,120.56Zm-141.69-.79-69.35-120.14,0,240.36Zm136.07-8.61L1330.22,444.11l-31.54,54.79Zm-147.31-222,6.64-11.5-.18-.11,3.84-6.65H1089.82l240,63.84ZM1147.68,742.27l-15.82-27.39c-3.93-6.8-8.16-14.13-12.46-21.56l-242,55.15H1151l-3.52-6.07ZM1120,689.06l170-182.9L1083.1,625.49Zm172.41-187.68H1153.86l-69.57,120.35Zm-141-1.15-69.5-120.38-.05,240.85Zm-67.52-127.78,208.45-120.56H1153.49Zm67.52-122L1082,130.18l0,240.67Zm-67.54,127.72,69.62,120.62h139.69Zm71.38,370.28,68.17-.09,70.26-240.56Zm133.58-237L1121.32,691.39l32,55.13ZM1153.12,752.19l-3.6,6.25-.26-.15-33.13,57.56,173.94,173Zm-12.4,16.55,6.66-11.54-.18-.1,3.83-6.65H874.35l240,63.83Zm-22.82-78c-16.09-27.84-32.64-56.49-36.94-64l-208,120ZM931.55,368.15l-15.82-27.42-12.46-21.54-242,55.16H934.84l-3.51-6.07Zm5.62,4.24,135.53-235L905.19,317.26Zm-.18,5.67-3.6,6.26-.26-.15L900,441.72l174,173Zm139.62,236.49-68.15-237.33,2.56-.74,68.3,239.27,0-239.43H939.07ZM867.86,502.42l69.87,121H1077.9Zm211.49-128.26,0-237.09L1010,374.25ZM1076.87,626H938l-69.6,120.56Zm-141.16-1L866.5,505.09,866.44,745Zm136.21-8.37L898.63,444.11,867.09,498.9Zm-147.31-222,6.64-11.5-.18-.11,3.84-6.65H658.23l240,63.84ZM716.09,742.27,700.28,714.9l-12.47-21.58-242,55.15H719.37l-3.51-6.07Zm-27.71-53.21,170-182.9L651.5,625.49Zm172.4-187.68H722.26L652.7,621.73ZM719.29,500,649.66,379.66l-.06,241Zm-67-127.53L860.75,251.89H721.9Zm67-121.75L649.71,130.18l-.05,241.14Zm-67,127.48L721.9,498.81H861.59Zm71.39,370.28,68.17-.09,70.25-240.56Zm133.57-237L689.73,691.39l32,55.13ZM721.52,752.19l-3.6,6.25-.25-.15-33.14,57.56,174,173Zm-12.4,16.55,6.66-11.54-.18-.1,3.84-6.65H442.76l240,63.83Zm-22.81-78c-16.1-27.84-32.65-56.49-36.94-64l-208,120Zm-187-322.58-15.81-27.4c-3.94-6.8-8.17-14.12-12.47-21.56L229,374.35h273.6l-3.52-6.07Zm5.62,4.24,135.53-235L472.94,317.26Zm-.18,5.67-3.6,6.26-.26-.15-33.13,57.55,173.94,173ZM644.36,614.55,576.21,377.22l2.56-.74,68.3,239.27,0-239.43H506.82ZM435.61,502.42l69.87,121H645.65ZM645.28,626H506.43l-69.6,120.56Zm-141.69-.79L434.24,505.09l-.05,240.36Zm136.08-8.61L466.37,444.11,434.83,498.9Zm-147.31-222L499,383.08l-.18-.11,3.83-6.65H226l240,63.84Zm-22.84-78c-16.09-27.84-32.64-56.49-36.94-64l-207.95,120Zm2.07-1.66L641.58,132,434.72,251.36ZM644,127.25H505.48L435.91,247.6ZM506.87,374.35l68.17-.09L645.3,133.69Zm70.85-.1,69.38-.09,0-237.09Zm71.06-250.72,32-55.2-238-63.21Zm2.18,1.25L855.79,242.49,682.5,70Zm.77,3.51,69.87,121h42.18l97.8-.11Zm5.15,244.26L901.77,316.6c-16.09-27.84-32.64-56.49-36.94-64Zm247-57.61,170-182.91L867,251.36Zm172.4-187.69H937.73L868.17,247.6ZM939.13,374.35l68.16-.09,70.26-240.57Zm141.24-250.82,32-55.2-238-63.21Zm2.18,1.25,204.84,117.71L1114.1,70Zm1.46,3.9,69.64,120.64h41.73l97.79-.11Zm4.47,243.87,244.89-55.95c-16.1-27.84-32.64-56.49-36.94-64Zm247-57.61,170-182.91L1298.56,251.36Zm172.4-187.69H1369.32L1299.76,247.6Zm-137.12,247.1,68.17-.09,70.25-240.57Zm70.85-.1,69.38-.09,0-237.09Zm71.06-250.72,32-55.2-238-63.21Zm2.18,1.25,204.83,117.71L1546.35,70Zm.77,3.51,69.87,121h42.18l97.79-.11Zm5.15,244.26,244.89-55.95c-16.09-27.84-32.64-56.49-36.94-64Zm247-57.61,170-182.91L1730.82,251.36ZM1940.1,127.25H1801.58L1732,247.6ZM1803,374.35l68.17-.09,70.26-240.57Zm141.25-250.82,32-55.2-238-63.21Zm2.18,1.25,204.83,117.71L1977.94,70Zm1.46,3.9,69.64,120.64h41.72l97.8-.11Zm4.46,243.87,244.9-55.95c-16.1-27.84-32.65-56.49-36.95-64Zm247-57.61,170-182.91L2162.41,251.36Zm1.34,2.32,32,55.13,135.53-235Zm172.72,306.19-210-121,69.87,121Zm-142.06,1.78-69.35-120.14-.05,240.36Zm.23,248.89-69.64-120.33-.05,241Zm-39.2-431.66-238-63.21,206,118.4Zm-33,68.74L2090,748.38l69.38-.09Zm0,239.25H2019l137.55,238.23-68.15-237.33,2.56-.75,68.3,239.27ZM2017.7,997.57h140.18l-210.05-121Zm134.19-6.83L1978.6,818.23,1947.06,873Zm-207-119,32-55.2-238-63.21Zm-3.32,1.15L1732.25,752.32l69.62,120.61Zm-141.77,1.42L1730.29,754l0,240.85Zm-39.07-431.89-238-63.21,206,118.4Zm-33,68.74-69.4,237.18,69.37-.09Zm0,239.25H1587.45L1725,988.68l-68.15-237.33,2.56-.75,68.3,239.27ZM1586.11,997.57h140.17l-210-121Zm134.19-6.83L1547,818.23,1515.46,873Zm-207-119,32-55.2-238-63.21Zm-143,1.15H1510L1300.65,752.32Zm-2.61,1.19L1298,753.79l-.06,241Zm-39.2-431.66-238-63.21,206,118.4Zm-33,68.74L1226.1,748.38l69.38-.09Zm0,239.25H1155.2l137.54,238.23-68.15-237.33,2.56-.75,68.3,239.27ZM1153.86,997.57H1294l-210-121Zm134.19-6.83-173.3-172.51L1083.21,873Zm-207-119,32-55.2L875,753.37Zm-3.31,1.15L868.4,752.32,938,872.93Zm-141.78,1.42L866.44,754l-.05,240.85ZM896.88,442.46l-238-63.21,206,118.4Zm-33,68.74L794.51,748.38l69.38-.09Zm0,239.25H723.6L861.14,988.68,793,751.35l2.55-.75,68.3,239.27ZM722.26,997.57H862.44l-210.05-121Zm134.19-6.83L683.16,818.23,651.62,873Zm-207-119,32-55.2-238-63.21Zm-143,1.15H646.12L436.8,752.32Zm-2.61,1.19L434.19,753.79l-.05,241Zm-39.2-431.66-238-63.21,206,118.4ZM276.87,768.74l6.66-11.54-.18-.1,3.83-6.65H10.51l240,63.83Zm-24.59,47.11,174,173-137-236.63-3.6,6.25-.26-.15Zm34.84-67.38-3.51-6.07.22-.13L268,714.87c-3.94-6.79-8.17-14.12-12.47-21.55l-242,55.15Zm2.33-2L425,511.46,257.47,691.39Zm2,2,68.16-.09,70.26-240.56ZM431.66,511.2l-69.4,237.18,69.37-.09Zm0,239.25H291.35L428.89,988.68,360.74,751.35l2.56-.75,68.3,239.27ZM290,997.57H430.18l-210-121Zm134.19-6.83L250.91,818.23,219.36,873Zm-207-119,32-55.2-238-63.21Zm-143,1.15H213.87L4.55,752.32Zm0-246.91L4.58,746.58,213,626Zm-65,120.66,244.89-55.95c-16.09-27.84-32.64-56.49-36.94-64Zm247-57.62,170-182.9L219.25,625.49Zm-35.69-67.33L428.53,501.38H290Zm69.21-122.92H429.34L220,378.19Zm-69.6-126.36L428.49,251.89H289.65Zm-2-246.58,71.27,123.45h42.18l98.75-.12L250.25,70ZM251.62,67.6l173.92,173L288.29,3.89Zm180-65.4H289.89L428.26,240.52,360.08,3.1l2.56-.75,70,245.27.13.14,70.37-121.89Zm73.82,122.53H645.55L435.62,3.77ZM442.1,2.2,682.08,66l37-63.83ZM683.87,67.6l174,173L720.91,3.25Zm180-65.4h-141l137.6,238.23L792.34,3.1l2.56-.75,70,245.27.14.14,70.37-121.89Zm73.82,122.53h139.48L868.2,4.34ZM873.7,2.2l240,63.83,37-63.83Zm241.77,65.4,173.93,173L1152.21,3.76Zm180-65.4H1153.89L1292.1,240.5,1223.93,3.1l2.56-.75,70,245.27.14.14L1367,125.87Zm73.81,122.53H1509.4l-209.93-121ZM1306,2.2l240,63.83,37-63.83Zm241.77,65.4,173.91,172.94L1584.34,4Zm180-65.4H1585.89l138.47,238.33L1656.18,3.1l2.56-.75,70,245.27.13.14,70.37-121.89Zm73.82,122.53H1941l-209-120.39Zm-64-122.53,240,63.83,37-63.83Zm241.78,65.4,173.94,173L2016.14,3.63Zm180-65.4h-141.4l138,238.28L2087.78,3.1l2.56-.75,70,245.27.14.14,70.37-121.89Zm73.88,125.05L2163.61,247.6l208.08-120.35Zm1.4,247.1,68.17-.09L2373,133.69Zm70.85-.1,69.37-.09,0-237.09ZM2377.3,620.7,2447,500l-69.63-120.33Zm.11-490.52-.06,241.14L2447,250.71Z" />
    </g>
  </g>
</svg>
