<svg xmlns="http://www.w3.org/2000/svg" viewBox="0 0 78 89.5">
  <g>
    <g>
      <path d="M68.89,25.5A6.12,6.12,0,0,1,75,31.61V80.39a6.12,6.12,0,0,1-6.11,6.11H9.11A6.12,6.12,0,0,1,3,80.39V31.61A6.12,6.12,0,0,1,9.11,25.5H68.89m0-3H9.11A9.11,9.11,0,0,0,0,31.61V80.39A9.11,9.11,0,0,0,9.11,89.5H68.89A9.11,9.11,0,0,0,78,80.39V31.61a9.11,9.11,0,0,0-9.11-9.11Z" />
      <path d="M61.5,22.5h-3a19.5,19.5,0,0,0-39,0h-3a22.5,22.5,0,0,1,45,0Z" />
      <rect x="16.5" y="22.5" width="3" height="12" />
      <rect x="58.5" y="22.5" width="3" height="12" />
    </g>
  </g>
</svg>
