<svg width="342" height="72" viewBox="0 0 342 72" fill="none" xmlns="http://www.w3.org/2000/svg">
<path d="M60.8417 26.3912H78.0893C82.3191 26.3912 85.6865 27.4589 88.1915 29.5944C90.6965 31.6887 91.949 34.6249 91.949 38.403C91.949 42.3453 90.1421 45.3431 86.5284 47.3964C86.282 47.5196 86.1177 47.6428 86.0356 47.766C85.9534 47.8481 85.9124 47.9918 85.9124 48.1971C85.9124 48.4846 86.0766 48.6899 86.4052 48.8131C90.3064 50.3736 92.257 53.5768 92.257 58.4225C92.257 62.3648 90.984 65.4037 88.4379 67.5391C85.9329 69.6745 82.4834 70.7422 78.0893 70.7422H60.8417V26.3912ZM77.4734 45.4868C80.1837 45.4868 82.237 44.9529 83.6332 43.8852C85.0705 42.8175 85.7892 41.0928 85.7892 38.711C85.7892 36.3291 85.0705 34.6044 83.6332 33.5367C82.237 32.469 80.1837 31.9351 77.4734 31.9351H67.0016V45.4868H77.4734ZM77.4734 65.1984C80.348 65.1984 82.5039 64.6645 83.9412 63.5968C85.3785 62.488 86.0972 60.6606 86.0972 58.1145C86.0972 55.5684 85.3785 53.7615 83.9412 52.6938C82.5039 51.5851 80.348 51.0307 77.4734 51.0307H67.0016V65.1984H77.4734Z" fill="#FFFCFC"/>
<path d="M127.662 70.7422H122.118V67.2311C122.118 66.9437 121.974 66.7999 121.687 66.7999C121.564 66.7999 121.44 66.8615 121.317 66.9847C121.235 67.0668 121.132 67.1695 121.009 67.2927C118.709 70.2084 115.383 71.6662 111.03 71.6662C107.006 71.6662 103.844 70.5369 101.544 68.2783C99.2443 66.0197 98.0945 62.8371 98.0945 58.7305V38.711H103.638V57.8065C103.638 60.7222 104.378 62.9397 105.856 64.4592C107.334 65.9786 109.47 66.7383 112.262 66.7383C115.424 66.7383 117.847 65.7938 119.531 63.9048C121.256 61.9747 122.118 59.1206 122.118 55.3426V38.711H127.662V70.7422Z" fill="#FFFCFC"/>
<path d="M140.92 38.711V70.7422H135.376V38.711H140.92ZM138.456 26.3912C140.497 26.3912 142.152 28.046 142.152 30.0871C142.152 32.1283 140.497 33.7831 138.456 33.7831H137.84C135.799 33.7831 134.144 32.1283 134.144 30.0871C134.144 28.046 135.799 26.3912 137.84 26.3912H138.456Z" fill="#FFFCFC"/>
<path d="M146.801 54.7266C146.801 51.0307 147.54 47.9097 149.018 45.3636C150.538 42.8175 152.488 40.9285 154.87 39.6965C157.252 38.4235 159.798 37.787 162.508 37.787C167.067 37.787 170.598 39.2859 173.103 42.2837C173.309 42.5711 173.534 42.7149 173.781 42.7149C174.068 42.7149 174.212 42.5506 174.212 42.2221V26.3912H179.756V70.7422H174.212V67.2311C174.212 66.9026 174.068 66.7383 173.781 66.7383C173.534 66.7383 173.309 66.8821 173.103 67.1695C170.598 70.1673 167.067 71.6662 162.508 71.6662C159.798 71.6662 157.252 71.0502 154.87 69.8183C152.488 68.5452 150.538 66.6357 149.018 64.0896C147.54 61.5435 146.801 58.4225 146.801 54.7266ZM152.345 54.7266C152.345 58.5046 153.351 61.4614 155.363 63.5968C157.416 65.6911 160.106 66.7383 163.432 66.7383C166.759 66.7383 169.428 65.6911 171.44 63.5968C173.493 61.4614 174.52 58.5046 174.52 54.7266C174.52 50.9485 173.493 48.0123 171.44 45.918C169.428 43.7826 166.759 42.7149 163.432 42.7149C160.106 42.7149 157.416 43.7826 155.363 45.918C153.351 48.0123 152.345 50.9485 152.345 54.7266Z" fill="#FFFCFC"/>
<path d="M192.971 26.3912V70.7422H187.427V26.3912H192.971Z" fill="#FFFCFC"/>
<path d="M198.544 48.5667C198.544 43.9674 199.467 39.9224 201.315 36.4318C203.204 32.9412 205.874 30.2514 209.323 28.3624C212.773 26.4323 216.777 25.4673 221.335 25.4673C225.524 25.4673 229.076 26.3091 231.992 27.9928C234.948 29.6354 237.166 31.7914 238.644 34.4606C240.123 37.1299 240.923 39.984 241.047 43.0229H234.887C234.558 39.368 233.265 36.4523 231.006 34.2759C228.747 32.0994 225.421 31.0111 221.027 31.0111C217.783 31.0111 214.929 31.7503 212.465 33.2287C210.001 34.666 208.091 36.7193 206.736 39.3885C205.381 42.0578 204.703 45.1172 204.703 48.5667C204.703 52.0573 205.36 55.1373 206.675 57.8065C208.03 60.4347 209.98 62.488 212.526 63.9664C215.072 65.4037 218.111 66.1223 221.643 66.1223C225.791 66.1223 228.871 65.1984 230.883 63.3504C232.895 61.5024 233.901 59.0385 233.901 55.9586H217.639V50.4147H240.061V54.7882C240.061 60.0446 238.398 64.1717 235.071 67.1695C231.786 70.1673 227.207 71.6662 221.335 71.6662C216.695 71.6662 212.65 70.7217 209.2 68.8327C205.751 66.9026 203.102 64.1922 201.254 60.7017C199.447 57.2111 198.544 53.1661 198.544 48.5667Z" fill="#FFFCFC"/>
<path d="M275.835 70.7422H270.291V67.2311C270.291 66.9437 270.148 66.7999 269.86 66.7999C269.737 66.7999 269.614 66.8615 269.491 66.9847C269.409 67.0668 269.306 67.1695 269.183 67.2927C266.883 70.2084 263.557 71.6662 259.204 71.6662C255.179 71.6662 252.017 70.5369 249.718 68.2783C247.418 66.0197 246.268 62.8371 246.268 58.7305V38.711H251.812V57.8065C251.812 60.7222 252.551 62.9397 254.029 64.4592C255.508 65.9786 257.643 66.7383 260.436 66.7383C263.598 66.7383 266.021 65.7938 267.704 63.9048C269.429 61.9747 270.291 59.1206 270.291 55.3426V38.711H275.835V70.7422Z" fill="#FFFCFC"/>
<path d="M289.093 38.711V70.7422H283.55V38.711H289.093ZM286.63 26.3912C288.671 26.3912 290.325 28.046 290.325 30.0871C290.325 32.1283 288.671 33.7831 286.63 33.7831H286.014C283.972 33.7831 282.318 32.1283 282.318 30.0871C282.318 28.046 283.972 26.3912 286.014 26.3912H286.63Z" fill="#FFFCFC"/>
<path d="M294.974 54.7266C294.974 51.0307 295.713 47.9097 297.192 45.3636C298.711 42.8175 300.662 40.9285 303.044 39.6965C305.425 38.4235 307.971 37.787 310.682 37.787C315.24 37.787 318.772 39.2859 321.277 42.2837C321.482 42.5711 321.708 42.7149 321.954 42.7149C322.242 42.7149 322.386 42.5506 322.386 42.2221V26.3912H327.929V70.7422H322.386V67.2311C322.386 66.9026 322.242 66.7383 321.954 66.7383C321.708 66.7383 321.482 66.8821 321.277 67.1695C318.772 70.1673 315.24 71.6662 310.682 71.6662C307.971 71.6662 305.425 71.0502 303.044 69.8183C300.662 68.5452 298.711 66.6357 297.192 64.0896C295.713 61.5435 294.974 58.4225 294.974 54.7266ZM300.518 54.7266C300.518 58.5046 301.524 61.4614 303.536 63.5968C305.59 65.6911 308.279 66.7383 311.606 66.7383C314.932 66.7383 317.601 65.6911 319.614 63.5968C321.667 61.4614 322.694 58.5046 322.694 54.7266C322.694 50.9485 321.667 48.0123 319.614 45.918C317.601 43.7826 314.932 42.7149 311.606 42.7149C308.279 42.7149 305.59 43.7826 303.536 45.918C301.524 48.0123 300.518 50.9485 300.518 54.7266Z" fill="#FFFCFC"/>
<path d="M341.144 26.3912V70.7422H335.6V26.3912H341.144Z" fill="#FFFCFC"/>
<path fill-rule="evenodd" clip-rule="evenodd" d="M60.6417 26.1913H78.0893C82.3524 26.1913 85.7701 27.2678 88.3205 29.4416C90.8779 31.5801 92.149 34.5764 92.149 38.403C92.149 42.4219 90.2993 45.4838 86.6271 47.5703L86.6179 47.5755C86.38 47.6945 86.2544 47.7982 86.202 47.8769L86.191 47.8934L86.177 47.9074C86.1524 47.9319 86.1124 48.0074 86.1124 48.1972C86.1124 48.3 86.1407 48.378 86.1917 48.4418C86.245 48.5084 86.3339 48.5728 86.4754 48.6259L86.4794 48.6274C88.4652 49.4217 89.9644 50.6389 90.9649 52.2818C91.9641 53.9227 92.457 55.9735 92.457 58.4225C92.457 62.4116 91.1665 65.5114 88.5669 67.692C86.0151 69.8668 82.5144 70.9423 78.0893 70.9423H60.6417V26.1913ZM88.4379 67.5391C90.984 65.4037 92.257 62.3648 92.257 58.4225C92.257 53.5768 90.3064 50.3736 86.4051 48.8131C86.0766 48.6899 85.9124 48.4846 85.9124 48.1972C85.9124 47.9918 85.9534 47.8481 86.0356 47.766C86.1177 47.6428 86.282 47.5196 86.5283 47.3964C90.1421 45.3431 91.949 42.3453 91.949 38.403C91.949 34.6249 90.6965 31.6887 88.1915 29.5944C85.6865 27.459 82.3191 26.3913 78.0893 26.3913H60.8417V70.7423H78.0893C82.4834 70.7423 85.9329 69.6745 88.4379 67.5391ZM83.5139 43.7247C84.8846 42.7065 85.5892 41.0522 85.5892 38.711C85.5892 36.3697 84.8846 34.7155 83.5139 33.6972L83.5117 33.6956C82.1647 32.6655 80.1622 32.1351 77.4734 32.1351H67.2016V45.2868H77.4734C80.1622 45.2868 82.1648 44.7564 83.5117 43.7264L83.5139 43.7247ZM67.0016 45.4868V31.9351H77.4734C80.1837 31.9351 82.237 32.469 83.6332 33.5367C85.0705 34.6044 85.7892 36.3292 85.7892 38.711C85.7892 41.0928 85.0705 42.8175 83.6332 43.8853C82.237 44.953 80.1837 45.4868 77.4734 45.4868H67.0016ZM83.819 52.8522C82.4319 51.7822 80.3278 51.2307 77.4734 51.2307H67.2016V64.9984H77.4734C80.3281 64.9984 82.433 64.4674 83.8205 63.4373C85.1901 62.3799 85.8972 60.6241 85.8972 58.1145C85.8972 55.6034 85.1894 53.8702 83.8219 52.8544L83.819 52.8522ZM83.9412 63.5968C82.5039 64.6645 80.348 65.1984 77.4734 65.1984H67.0016V51.0307H77.4734C80.348 51.0307 82.5039 51.5851 83.9412 52.6939C85.3785 53.7616 86.0972 55.5685 86.0972 58.1145C86.0972 60.6606 85.3785 62.488 83.9412 63.5968ZM127.862 70.9423H121.918V67.2311C121.918 67.1182 121.89 67.0703 121.869 67.0492C121.848 67.028 121.8 66.9999 121.687 66.9999C121.635 66.9999 121.56 67.0248 121.459 67.1262L121.159 67.4259C118.815 70.392 115.428 71.8662 111.03 71.8662C106.967 71.8662 103.75 70.725 101.404 68.421C99.0561 66.1152 97.8944 62.8753 97.8944 58.7305V38.511H103.838V57.8065C103.838 60.69 104.569 62.8498 105.999 64.3197C107.429 65.7893 109.506 66.5383 112.262 66.5383C115.382 66.5383 117.745 65.6079 119.381 63.7717C121.061 61.892 121.918 59.0937 121.918 55.3426V38.511H127.862V70.9423ZM121.009 67.2927L121.317 66.9847C121.44 66.8615 121.564 66.7999 121.687 66.7999C121.974 66.7999 122.118 66.9437 122.118 67.2311V70.7423H127.662V38.711H122.118V55.3426C122.118 59.1206 121.256 61.9747 119.531 63.9048C117.847 65.7938 115.424 66.7383 112.262 66.7383C109.47 66.7383 107.334 65.9786 105.856 64.4592C104.378 62.9398 103.638 60.7222 103.638 57.8065V38.711H98.0944V58.7305C98.0944 62.8371 99.2443 66.0197 101.544 68.2783C103.844 70.5369 107.006 71.6662 111.03 71.6662C115.383 71.6662 118.709 70.2084 121.009 67.2927ZM141.12 38.511V70.9423H135.176V38.511H141.12ZM148.845 45.2632L148.846 45.2611C150.383 42.687 152.359 40.7705 154.777 39.5196C157.188 38.2314 159.766 37.587 162.508 37.587C167.115 37.587 170.707 39.1044 173.257 42.1555L173.262 42.1613L173.266 42.1674C173.451 42.4266 173.624 42.5149 173.781 42.5149C173.886 42.5149 173.931 42.486 173.954 42.46C173.981 42.4289 174.012 42.3616 174.012 42.2221V26.1913H179.956V70.9423H174.012V67.2311C174.012 67.0916 173.981 67.0243 173.954 66.9932C173.931 66.9672 173.886 66.9383 173.781 66.9383C173.624 66.9383 173.451 67.0266 173.266 67.2858L173.262 67.292L173.257 67.2978C170.707 70.3489 167.115 71.8662 162.508 71.8662C159.766 71.8662 157.189 71.2427 154.778 69.9959L154.776 69.9947C152.359 68.7028 150.383 66.7662 148.846 64.1921L148.845 64.19C147.345 61.6066 146.601 58.4489 146.601 54.7266C146.601 51.0043 147.345 47.8466 148.845 45.2632ZM154.87 39.6966C152.488 40.9285 150.538 42.8175 149.018 45.3636C147.54 47.9097 146.801 51.0307 146.801 54.7266C146.801 58.4225 147.54 61.5435 149.018 64.0896C150.538 66.6357 152.488 68.5452 154.87 69.8183C157.252 71.0502 159.798 71.6662 162.508 71.6662C167.067 71.6662 170.598 70.1673 173.103 67.1695C173.309 66.8821 173.534 66.7383 173.781 66.7383C174.068 66.7383 174.212 66.9026 174.212 67.2311V70.7423H179.756V26.3913H174.212V42.2221C174.212 42.5506 174.068 42.7149 173.781 42.7149C173.534 42.7149 173.309 42.5712 173.103 42.2837C170.598 39.2859 167.067 37.787 162.508 37.787C159.798 37.787 157.252 38.4235 154.87 39.6966ZM193.171 26.1913V70.9423H187.227V26.1913H193.171ZM171.296 63.4582C173.304 61.3695 174.32 58.4678 174.32 54.7266C174.32 50.9852 173.304 48.1051 171.297 46.058L171.295 46.0552C169.325 43.9654 166.712 42.9149 163.432 42.9149C160.153 42.9149 157.518 43.9654 155.507 46.0566C153.54 48.1035 152.545 50.9842 152.545 54.7266C152.545 58.4681 153.54 61.3699 155.507 63.4583C157.517 65.508 160.153 66.5383 163.432 66.5383C166.713 66.5383 169.327 65.5075 171.296 63.4582ZM155.363 45.918C157.416 43.7826 160.106 42.7149 163.432 42.7149C166.759 42.7149 169.428 43.7826 171.44 45.918C173.493 48.0124 174.52 50.9486 174.52 54.7266C174.52 58.5047 173.493 61.4614 171.44 63.5968C169.428 65.6912 166.759 66.7383 163.432 66.7383C160.106 66.7383 157.416 65.6912 155.363 63.5968C153.351 61.4614 152.345 58.5047 152.345 54.7266C152.345 50.9486 153.351 48.0124 155.363 45.918ZM201.139 36.3382L201.14 36.3366C203.047 32.8126 205.743 30.0949 209.227 28.1872C212.71 26.2384 216.748 25.2673 221.335 25.2673C225.55 25.2673 229.138 26.1144 232.09 27.819C235.075 29.4777 237.321 31.6588 238.819 34.3638C240.313 37.0602 241.122 39.9447 241.246 43.0148L241.255 43.2229H234.704L234.687 43.0408C234.362 39.4253 233.085 36.5574 230.867 34.4199C228.659 32.2916 225.39 31.2111 221.027 31.2111C217.814 31.2111 214.997 31.9428 212.568 33.4002L212.566 33.4015C210.137 34.8184 208.253 36.8423 206.914 39.4791C205.576 42.1163 204.903 45.1439 204.903 48.5668C204.903 52.031 205.555 55.0791 206.853 57.716C208.191 60.3097 210.114 62.3343 212.626 63.7931C215.136 65.2097 218.139 65.9224 221.643 65.9224C225.766 65.9224 228.787 65.0033 230.747 63.2031C232.67 61.4379 233.657 59.0965 233.7 56.1586H217.439V50.2147H240.261V54.7882C240.261 60.0903 238.581 64.2754 235.206 67.3178C231.873 70.3585 227.241 71.8662 221.335 71.8662C216.667 71.8662 212.588 70.9159 209.104 69.0081L209.102 69.0072C205.619 67.0583 202.943 64.3199 201.077 60.7953L201.076 60.7936C199.252 57.2701 198.343 53.1927 198.343 48.5668C198.343 43.9402 199.273 39.8621 201.139 36.3382ZM235.071 67.1695C238.398 64.1717 240.061 60.0446 240.061 54.7882V50.4147H217.639V55.9586H233.901C233.901 56.0255 233.901 56.0922 233.9 56.1586C233.857 59.1454 232.851 61.5426 230.883 63.3504C228.871 65.1984 225.791 66.1224 221.643 66.1224C218.111 66.1224 215.072 65.4037 212.526 63.9664C209.98 62.488 208.03 60.4348 206.675 57.8065C205.36 55.1373 204.703 52.0573 204.703 48.5668C204.703 45.1172 205.381 42.0578 206.736 39.3886C208.091 36.7193 210.001 34.666 212.465 33.2287C214.929 31.7503 217.783 31.0111 221.027 31.0111C225.421 31.0111 228.747 32.0994 231.006 34.2759C233.265 36.4524 234.558 39.368 234.887 43.0229H241.047C241.044 42.9561 241.041 42.8895 241.037 42.8229C240.888 39.8587 240.09 37.0713 238.644 34.4607C237.166 31.7914 234.948 29.6354 231.992 27.9928C229.076 26.3091 225.524 25.4673 221.335 25.4673C216.777 25.4673 212.773 26.4323 209.323 28.3624C205.874 30.2514 203.204 32.9412 201.315 36.4318C199.467 39.9224 198.543 43.9674 198.543 48.5668C198.543 53.1661 199.447 57.2111 201.254 60.7017C203.102 64.1923 205.751 66.9026 209.2 68.8327C212.65 70.7217 216.695 71.6662 221.335 71.6662C227.207 71.6662 231.786 70.1673 235.071 67.1695ZM276.035 70.9423H270.091V67.2311C270.091 67.1182 270.063 67.0703 270.042 67.0492C270.021 67.028 269.973 66.9999 269.86 66.9999C269.809 66.9999 269.733 67.0248 269.632 67.1262L269.332 67.4259C266.988 70.392 263.601 71.8662 259.204 71.8662C255.141 71.8662 251.923 70.725 249.577 68.421C247.23 66.1152 246.068 62.8753 246.068 58.7305V38.511H252.012V57.8065C252.012 60.69 252.743 62.8498 254.173 64.3197C255.603 65.7893 257.679 66.5383 260.436 66.5383C263.556 66.5383 265.918 65.6079 267.555 63.7717C269.235 61.892 270.091 59.0937 270.091 55.3426V38.511H276.035V70.9423ZM269.183 67.2927L269.491 66.9847C269.614 66.8615 269.737 66.7999 269.86 66.7999C270.148 66.7999 270.291 66.9437 270.291 67.2311V70.7423H275.835V38.711H270.291V55.3426C270.291 59.1206 269.429 61.9747 267.704 63.9048C266.021 65.7938 263.598 66.7383 260.436 66.7383C257.643 66.7383 255.508 65.9786 254.029 64.4592C252.551 62.9398 251.812 60.7222 251.812 57.8065V38.711H246.268V58.7305C246.268 62.8371 247.418 66.0197 249.717 68.2783C252.017 70.5369 255.179 71.6662 259.204 71.6662C263.557 71.6662 266.883 70.2084 269.183 67.2927ZM289.293 38.511V70.9423H283.35V38.511H289.293ZM297.019 45.2632L297.02 45.2611C298.556 42.6868 300.533 40.7702 302.951 39.5193C305.361 38.2313 307.939 37.587 310.682 37.587C315.288 37.587 318.881 39.1044 321.43 42.1555L321.435 42.1613L321.44 42.1674C321.625 42.4266 321.798 42.5149 321.954 42.5149C322.06 42.5149 322.105 42.486 322.127 42.46C322.154 42.4289 322.186 42.3616 322.186 42.2221V26.1913H328.129V70.9423H322.186V67.2311C322.186 67.0916 322.154 67.0244 322.127 66.9932C322.105 66.9672 322.06 66.9383 321.954 66.9383C321.798 66.9383 321.625 67.0266 321.44 67.2858L321.435 67.292L321.43 67.2978C318.881 70.3489 315.288 71.8662 310.682 71.8662C307.94 71.8662 305.362 71.2427 302.952 69.9959L302.949 69.9947C300.532 68.7028 298.556 66.7662 297.02 64.1921L297.019 64.19C295.519 61.6066 294.774 58.4489 294.774 54.7266C294.774 51.0043 295.519 47.8466 297.019 45.2632ZM303.044 39.6966C300.662 40.9285 298.711 42.8175 297.192 45.3636C295.713 47.9097 294.974 51.0307 294.974 54.7266C294.974 58.4225 295.713 61.5435 297.192 64.0896C298.711 66.6357 300.662 68.5452 303.044 69.8183C305.425 71.0502 307.971 71.6662 310.682 71.6662C315.24 71.6662 318.772 70.1673 321.277 67.1695C321.482 66.8821 321.708 66.7383 321.954 66.7383C322.242 66.7383 322.386 66.9026 322.386 67.2311V70.7423H327.929V26.3913H322.386V42.2221C322.386 42.5506 322.242 42.7149 321.954 42.7149C321.708 42.7149 321.482 42.5712 321.277 42.2837C318.772 39.2859 315.24 37.787 310.682 37.787C307.971 37.787 305.425 38.4235 303.044 39.6966ZM319.471 46.058L319.468 46.0552C317.499 43.9654 314.885 42.9149 311.606 42.9149C308.327 42.9149 305.691 43.9654 303.681 46.0566C301.714 48.1035 300.718 50.9841 300.718 54.7266C300.718 58.4681 301.713 61.3699 303.681 63.4583C305.691 65.508 308.326 66.5383 311.606 66.5383C314.886 66.5383 317.501 65.5075 319.469 63.4582L319.614 63.5968C317.601 65.6912 314.932 66.7383 311.606 66.7383C308.279 66.7383 305.59 65.6912 303.536 63.5968C301.524 61.4614 300.518 58.5047 300.518 54.7266C300.518 50.9486 301.524 48.0124 303.536 45.918C305.59 43.7826 308.279 42.7149 311.606 42.7149C314.932 42.7149 317.601 43.7826 319.614 45.918C321.667 48.0124 322.694 50.9486 322.694 54.7266C322.694 58.5047 321.667 61.4614 319.614 63.5968L319.469 63.4582C321.478 61.3696 322.494 58.4678 322.494 54.7266C322.494 50.9852 321.478 48.1051 319.471 46.058ZM341.344 26.1913V70.9423H335.4V26.1913H341.344ZM138.456 33.9831H137.84C135.688 33.9831 133.944 32.2388 133.944 30.0872C133.944 27.9355 135.688 26.1913 137.84 26.1913H138.456C140.608 26.1913 142.352 27.9355 142.352 30.0872C142.352 32.2388 140.608 33.9831 138.456 33.9831ZM286.63 33.9831H286.014C283.862 33.9831 282.118 32.2388 282.118 30.0872C282.118 27.9355 283.862 26.1913 286.014 26.1913H286.63C288.781 26.1913 290.525 27.9355 290.525 30.0872C290.525 32.2388 288.781 33.9831 286.63 33.9831ZM140.92 70.7423H135.376V38.711H140.92V70.7423ZM138.456 26.3913C140.497 26.3913 142.152 28.046 142.152 30.0872C142.152 32.1284 140.497 33.7831 138.456 33.7831H137.84C135.799 33.7831 134.144 32.1284 134.144 30.0872C134.144 28.046 135.799 26.3913 137.84 26.3913H138.456ZM192.971 70.7423H187.427V26.3913H192.971V70.7423ZM289.093 38.711H283.55V70.7423H289.093V38.711ZM290.325 30.0872C290.325 28.046 288.671 26.3913 286.63 26.3913H286.014C283.972 26.3913 282.318 28.046 282.318 30.0872C282.318 32.1284 283.972 33.7831 286.014 33.7831H286.63C288.671 33.7831 290.325 32.1284 290.325 30.0872ZM341.144 26.3913H335.6V70.7423H341.144V26.3913Z" fill="#FFFCFC"/>
<path fill-rule="evenodd" clip-rule="evenodd" d="M25.5448 17.4343V33.0724H29.4717V42.112H39.1898V33.0724H45.9342V51.1516L35.3271 71.0327L23.2171 70.8499L11.1071 71.0327L0.500003 51.1516V33.0724H7.21376V42.112H16.9625V33.0724H21.2919V2.46018C21.2919 1.28578 22.244 0.33374 23.4184 0.33374C24.2656 0.33374 24.997 0.829166 25.3389 1.5461C26.4137 1.95807 27.4963 3.04667 28.6156 4.17218C29.9451 5.50908 31.3265 6.89807 32.8081 7.26705C34.3041 7.63964 35.4133 7.24126 36.6628 6.79247C37.9736 6.32163 39.439 5.79531 41.6678 6.04548C43.339 6.24212 44.2251 7.33351 45.2159 8.5539C46.5333 10.1765 48.0357 12.0271 51.815 12.306L51.7912 12.3229C49.3714 14.0316 46.0654 16.3662 40.932 15.9096C39.3266 15.7711 38.1955 15.2536 37.1111 14.7573C35.5655 14.0501 34.1147 13.3862 31.5205 13.9246C28.7126 14.4879 27.2938 15.8172 26.2149 16.8281C25.9789 17.0492 25.7592 17.255 25.5448 17.4343Z" fill="#FFFCFC"/>
</svg>

