<svg width="342" height="72" viewBox="0 0 342 72" fill="none" xmlns="http://www.w3.org/2000/svg">
<path d="M61.1974 26.3912H78.4451C82.6748 26.3912 86.0422 27.4589 88.5472 29.5944C91.0522 31.6887 92.3047 34.6249 92.3047 38.403C92.3047 42.3453 90.4979 45.3431 86.8841 47.3964C86.6377 47.5196 86.4734 47.6428 86.3913 47.766C86.3091 47.8481 86.2681 47.9918 86.2681 48.1971C86.2681 48.4846 86.4323 48.6899 86.7609 48.8131C90.6621 50.3736 92.6127 53.5768 92.6127 58.4225C92.6127 62.3648 91.3397 65.4037 88.7936 67.5391C86.2886 69.6745 82.8391 70.7422 78.4451 70.7422H61.1974V26.3912ZM77.8291 45.4868C80.5394 45.4868 82.5927 44.9529 83.9889 43.8852C85.4262 42.8175 86.1449 41.0928 86.1449 38.711C86.1449 36.3291 85.4262 34.6044 83.9889 33.5367C82.5927 32.469 80.5394 31.9351 77.8291 31.9351H67.3573V45.4868H77.8291ZM77.8291 65.1984C80.7037 65.1984 82.8596 64.6645 84.2969 63.5968C85.7342 62.488 86.4529 60.6606 86.4529 58.1145C86.4529 55.5684 85.7342 53.7615 84.2969 52.6938C82.8596 51.5851 80.7037 51.0307 77.8291 51.0307H67.3573V65.1984H77.8291Z" fill="#182232"/>
<path d="M128.018 70.7422H122.474V67.2311C122.474 66.9437 122.33 66.7999 122.042 66.7999C121.919 66.7999 121.796 66.8615 121.673 66.9847C121.591 67.0668 121.488 67.1695 121.365 67.2927C119.065 70.2084 115.739 71.6662 111.386 71.6662C107.361 71.6662 104.199 70.5369 101.9 68.2783C99.6 66.0197 98.4502 62.8371 98.4502 58.7305V38.711H103.994V57.8065C103.994 60.7222 104.733 62.9397 106.212 64.4592C107.69 65.9786 109.825 66.7383 112.618 66.7383C115.78 66.7383 118.203 65.7938 119.886 63.9048C121.611 61.9747 122.474 59.1206 122.474 55.3426V38.711H128.018V70.7422Z" fill="#182232"/>
<path d="M141.276 38.711V70.7422H135.732V38.711H141.276ZM138.812 26.3912C140.853 26.3912 142.508 28.046 142.508 30.0871C142.508 32.1283 140.853 33.7831 138.812 33.7831H138.196C136.155 33.7831 134.5 32.1283 134.5 30.0871C134.5 28.046 136.155 26.3912 138.196 26.3912H138.812Z" fill="#182232"/>
<path d="M147.156 54.7266C147.156 51.0307 147.896 47.9097 149.374 45.3636C150.893 42.8175 152.844 40.9285 155.226 39.6965C157.608 38.4235 160.154 37.787 162.864 37.787C167.422 37.787 170.954 39.2859 173.459 42.2837C173.664 42.5711 173.89 42.7149 174.137 42.7149C174.424 42.7149 174.568 42.5506 174.568 42.2221V26.3912H180.112V70.7422H174.568V67.2311C174.568 66.9026 174.424 66.7383 174.137 66.7383C173.89 66.7383 173.664 66.8821 173.459 67.1695C170.954 70.1673 167.422 71.6662 162.864 71.6662C160.154 71.6662 157.608 71.0502 155.226 69.8183C152.844 68.5452 150.893 66.6357 149.374 64.0896C147.896 61.5435 147.156 58.4225 147.156 54.7266ZM152.7 54.7266C152.7 58.5046 153.706 61.4614 155.719 63.5968C157.772 65.6911 160.462 66.7383 163.788 66.7383C167.114 66.7383 169.784 65.6911 171.796 63.5968C173.849 61.4614 174.876 58.5046 174.876 54.7266C174.876 50.9485 173.849 48.0123 171.796 45.918C169.784 43.7826 167.114 42.7149 163.788 42.7149C160.462 42.7149 157.772 43.7826 155.719 45.918C153.706 48.0123 152.7 50.9485 152.7 54.7266Z" fill="#182232"/>
<path d="M193.326 26.3912V70.7422H187.783V26.3912H193.326Z" fill="#182232"/>
<path d="M198.899 48.5667C198.899 43.9674 199.823 39.9224 201.671 36.4318C203.56 32.9412 206.229 30.2514 209.679 28.3624C213.128 26.4323 217.132 25.4673 221.691 25.4673C225.879 25.4673 229.432 26.3091 232.347 27.9928C235.304 29.6354 237.522 31.7914 239 34.4606C240.478 37.1299 241.279 39.984 241.402 43.0229H235.242C234.914 39.368 233.62 36.4523 231.362 34.2759C229.103 32.0994 225.777 31.0111 221.383 31.0111C218.139 31.0111 215.284 31.7503 212.821 33.2287C210.357 34.666 208.447 36.7193 207.092 39.3885C205.737 42.0578 205.059 45.1172 205.059 48.5667C205.059 52.0573 205.716 55.1373 207.03 57.8065C208.385 60.4347 210.336 62.488 212.882 63.9664C215.428 65.4037 218.467 66.1223 221.999 66.1223C226.146 66.1223 229.226 65.1984 231.238 63.3504C233.251 61.5024 234.257 59.0385 234.257 55.9586H217.995V50.4147H240.417V54.7882C240.417 60.0446 238.754 64.1717 235.427 67.1695C232.142 70.1673 227.563 71.6662 221.691 71.6662C217.05 71.6662 213.005 70.7217 209.556 68.8327C206.106 66.9026 203.458 64.1922 201.61 60.7017C199.803 57.2111 198.899 53.1661 198.899 48.5667Z" fill="#182232"/>
<path d="M276.191 70.7422H270.647V67.2311C270.647 66.9437 270.503 66.7999 270.216 66.7999C270.093 66.7999 269.97 66.8615 269.846 66.9847C269.764 67.0668 269.662 67.1695 269.538 67.2927C267.239 70.2084 263.912 71.6662 259.559 71.6662C255.535 71.6662 252.373 70.5369 250.073 68.2783C247.774 66.0197 246.624 62.8371 246.624 58.7305V38.711H252.168V57.8065C252.168 60.7222 252.907 62.9397 254.385 64.4592C255.863 65.9786 257.999 66.7383 260.791 66.7383C263.953 66.7383 266.376 65.7938 268.06 63.9048C269.785 61.9747 270.647 59.1206 270.647 55.3426V38.711H276.191V70.7422Z" fill="#182232"/>
<path d="M289.449 38.711V70.7422H283.905V38.711H289.449ZM286.985 26.3912C289.026 26.3912 290.681 28.046 290.681 30.0871C290.681 32.1283 289.026 33.7831 286.985 33.7831H286.369C284.328 33.7831 282.673 32.1283 282.673 30.0871C282.673 28.046 284.328 26.3912 286.369 26.3912H286.985Z" fill="#182232"/>
<path d="M295.33 54.7266C295.33 51.0307 296.069 47.9097 297.547 45.3636C299.067 42.8175 301.018 40.9285 303.399 39.6965C305.781 38.4235 308.327 37.787 311.038 37.787C315.596 37.787 319.128 39.2859 321.633 42.2837C321.838 42.5711 322.064 42.7149 322.31 42.7149C322.598 42.7149 322.741 42.5506 322.741 42.2221V26.3912H328.285V70.7422H322.741V67.2311C322.741 66.9026 322.598 66.7383 322.31 66.7383C322.064 66.7383 321.838 66.8821 321.633 67.1695C319.128 70.1673 315.596 71.6662 311.038 71.6662C308.327 71.6662 305.781 71.0502 303.399 69.8183C301.018 68.5452 299.067 66.6357 297.547 64.0896C296.069 61.5435 295.33 58.4225 295.33 54.7266ZM300.874 54.7266C300.874 58.5046 301.88 61.4614 303.892 63.5968C305.945 65.6911 308.635 66.7383 311.962 66.7383C315.288 66.7383 317.957 65.6911 319.969 63.5968C322.023 61.4614 323.049 58.5046 323.049 54.7266C323.049 50.9485 322.023 48.0123 319.969 45.918C317.957 43.7826 315.288 42.7149 311.962 42.7149C308.635 42.7149 305.945 43.7826 303.892 45.918C301.88 48.0123 300.874 50.9485 300.874 54.7266Z" fill="#182232"/>
<path d="M341.5 26.3912V70.7422H335.956V26.3912H341.5Z" fill="#182232"/>
<path fill-rule="evenodd" clip-rule="evenodd" d="M60.9974 26.1913H78.445C82.7081 26.1913 86.1258 27.2678 88.6763 29.4416C91.2336 31.5801 92.5047 34.5764 92.5047 38.403C92.5047 42.4219 90.655 45.4838 86.9829 47.5703L86.9736 47.5755C86.7358 47.6945 86.6101 47.7982 86.5577 47.8769L86.5467 47.8934L86.5327 47.9074C86.5081 47.9319 86.4681 48.0074 86.4681 48.1972C86.4681 48.3 86.4964 48.378 86.5474 48.4418C86.6007 48.5084 86.6896 48.5728 86.8311 48.6259L86.8352 48.6274C88.8209 49.4217 90.3201 50.6389 91.3206 52.2818C92.3198 53.9227 92.8127 55.9735 92.8127 58.4225C92.8127 62.4116 91.5222 65.5114 88.9226 67.692C86.3709 69.8668 82.8701 70.9423 78.445 70.9423H60.9974V26.1913ZM88.7936 67.5391C91.3397 65.4037 92.6127 62.3648 92.6127 58.4225C92.6127 53.5768 90.6621 50.3736 86.7609 48.8131C86.4323 48.6899 86.2681 48.4846 86.2681 48.1972C86.2681 47.9918 86.3091 47.8481 86.3913 47.766C86.4734 47.6428 86.6377 47.5196 86.8841 47.3964C90.4978 45.3431 92.3047 42.3453 92.3047 38.403C92.3047 34.6249 91.0522 31.6887 88.5472 29.5944C86.0422 27.459 82.6748 26.3913 78.445 26.3913H61.1974V70.7423H78.445C82.8391 70.7423 86.2886 69.6745 88.7936 67.5391ZM83.8697 43.7247C85.2403 42.7065 85.9449 41.0522 85.9449 38.711C85.9449 36.3697 85.2403 34.7155 83.8697 33.6972L83.8674 33.6956C82.5205 32.6655 80.5179 32.1351 77.8291 32.1351H67.5573V45.2868H77.8291C80.5179 45.2868 82.5205 44.7564 83.8674 43.7264L83.8697 43.7247ZM67.3573 45.4868V31.9351H77.8291C80.5394 31.9351 82.5927 32.469 83.9889 33.5367C85.4262 34.6044 86.1449 36.3292 86.1449 38.711C86.1449 41.0928 85.4262 42.8175 83.9889 43.8853C82.5927 44.953 80.5394 45.4868 77.8291 45.4868H67.3573ZM84.1748 52.8522C82.7876 51.7822 80.6835 51.2307 77.8291 51.2307H67.5573V64.9984H77.8291C80.6838 64.9984 82.7887 64.4674 84.1762 63.4373C85.5458 62.3799 86.2529 60.6241 86.2529 58.1145C86.2529 55.6034 85.5451 53.8702 84.1777 52.8544L84.1748 52.8522ZM84.2969 63.5968C82.8596 64.6645 80.7037 65.1984 77.8291 65.1984H67.3573V51.0307H77.8291C80.7037 51.0307 82.8596 51.5851 84.2969 52.6939C85.7342 53.7616 86.4529 55.5685 86.4529 58.1145C86.4529 60.6606 85.7342 62.488 84.2969 63.5968ZM128.217 70.9423H122.274V67.2311C122.274 67.1182 122.246 67.0703 122.224 67.0492C122.203 67.028 122.155 66.9999 122.042 66.9999C121.991 66.9999 121.916 67.0248 121.814 67.1262L121.515 67.4259C119.17 70.392 115.784 71.8662 111.386 71.8662C107.323 71.8662 104.105 70.725 101.76 68.421C99.4118 66.1152 98.2502 62.8753 98.2502 58.7305V38.511H104.194V57.8065C104.194 60.69 104.925 62.8498 106.355 64.3197C107.785 65.7893 109.862 66.5383 112.618 66.5383C115.738 66.5383 118.101 65.6079 119.737 63.7717C121.417 61.892 122.274 59.0937 122.274 55.3426V38.511H128.217V70.9423ZM121.365 67.2927L121.673 66.9847C121.796 66.8615 121.919 66.7999 122.042 66.7999C122.33 66.7999 122.474 66.9437 122.474 67.2311V70.7423H128.017V38.711H122.474V55.3426C122.474 59.1206 121.611 61.9747 119.886 63.9048C118.203 65.7938 115.78 66.7383 112.618 66.7383C109.825 66.7383 107.69 65.9786 106.212 64.4592C104.733 62.9398 103.994 60.7222 103.994 57.8065V38.711H98.4502V58.7305C98.4502 62.8371 99.6 66.0197 101.9 68.2783C104.199 70.5369 107.361 71.6662 111.386 71.6662C115.739 71.6662 119.065 70.2084 121.365 67.2927ZM141.476 38.511V70.9423H135.532V38.511H141.476ZM149.201 45.2632L149.202 45.2611C150.738 42.687 152.715 40.7705 155.133 39.5196C157.543 38.2314 160.121 37.587 162.864 37.587C167.471 37.587 171.063 39.1044 173.612 42.1555L173.617 42.1613L173.622 42.1674C173.807 42.4266 173.98 42.5149 174.137 42.5149C174.242 42.5149 174.287 42.486 174.309 42.46C174.337 42.4289 174.368 42.3616 174.368 42.2221V26.1913H180.312V70.9423H174.368V67.2311C174.368 67.0916 174.337 67.0243 174.309 66.9932C174.287 66.9672 174.242 66.9383 174.137 66.9383C173.98 66.9383 173.807 67.0266 173.622 67.2858L173.617 67.292L173.612 67.2978C171.063 70.3489 167.471 71.8662 162.864 71.8662C160.122 71.8662 157.544 71.2427 155.134 69.9959L155.132 69.9947C152.715 68.7028 150.738 66.7662 149.202 64.1921L149.201 64.19C147.701 61.6066 146.956 58.4489 146.956 54.7266C146.956 51.0043 147.701 47.8466 149.201 45.2632ZM155.226 39.6966C152.844 40.9285 150.893 42.8175 149.374 45.3636C147.896 47.9097 147.156 51.0307 147.156 54.7266C147.156 58.4225 147.896 61.5435 149.374 64.0896C150.893 66.6357 152.844 68.5452 155.226 69.8183C157.608 71.0502 160.154 71.6662 162.864 71.6662C167.422 71.6662 170.954 70.1673 173.459 67.1695C173.664 66.8821 173.89 66.7383 174.137 66.7383C174.424 66.7383 174.568 66.9026 174.568 67.2311V70.7423H180.112V26.3913H174.568V42.2221C174.568 42.5506 174.424 42.7149 174.137 42.7149C173.89 42.7149 173.664 42.5712 173.459 42.2837C170.954 39.2859 167.422 37.787 162.864 37.787C160.154 37.787 157.608 38.4235 155.226 39.6966ZM193.526 26.1913V70.9423H187.583V26.1913H193.526ZM171.652 63.4582C173.66 61.3695 174.676 58.4678 174.676 54.7266C174.676 50.9852 173.66 48.1051 171.653 46.058L171.65 46.0552C169.681 43.9654 167.067 42.9149 163.788 42.9149C160.509 42.9149 157.874 43.9654 155.863 46.0566C153.896 48.1035 152.9 50.9842 152.9 54.7266C152.9 58.4681 153.896 61.3699 155.863 63.4583C157.873 65.508 160.508 66.5383 163.788 66.5383C167.069 66.5383 169.683 65.5075 171.652 63.4582ZM155.719 45.918C157.772 43.7826 160.462 42.7149 163.788 42.7149C167.114 42.7149 169.784 43.7826 171.796 45.918C173.849 48.0124 174.876 50.9486 174.876 54.7266C174.876 58.5047 173.849 61.4614 171.796 63.5968C169.784 65.6912 167.114 66.7383 163.788 66.7383C160.462 66.7383 157.772 65.6912 155.719 63.5968C153.706 61.4614 152.7 58.5047 152.7 54.7266C152.7 50.9486 153.706 48.0124 155.719 45.918ZM201.494 36.3382L201.495 36.3366C203.402 32.8126 206.099 30.0949 209.583 28.1872C213.066 26.2384 217.104 25.2673 221.691 25.2673C225.906 25.2673 229.494 26.1144 232.446 27.819C235.431 29.4777 237.677 31.6588 239.175 34.3638C240.668 37.0602 241.478 39.9447 241.602 43.0148L241.611 43.2229H235.06L235.043 43.0408C234.718 39.4253 233.441 36.5574 231.223 34.4199C229.014 32.2916 225.746 31.2111 221.383 31.2111C218.17 31.2111 215.352 31.9428 212.923 33.4002L212.921 33.4015C210.492 34.8184 208.609 36.8423 207.27 39.4791C205.931 42.1163 205.259 45.1439 205.259 48.5668C205.259 52.031 205.911 55.0791 207.209 57.716C208.546 60.3097 210.47 62.3343 212.982 63.7931C215.492 65.2097 218.495 65.9224 221.999 65.9224C226.121 65.9224 229.143 65.0033 231.103 63.2031C233.025 61.4379 234.013 59.0965 234.055 56.1586H217.795V50.2147H240.617V54.7882C240.617 60.0903 238.937 64.2754 235.561 67.3178C232.229 70.3585 227.596 71.8662 221.691 71.8662C217.023 71.8662 212.944 70.9159 209.46 69.0081L209.458 69.0072C205.975 67.0583 203.299 64.3199 201.433 60.7953L201.432 60.7936C199.608 57.2701 198.699 53.1927 198.699 48.5668C198.699 43.9402 199.629 39.8621 201.494 36.3382ZM235.427 67.1695C238.754 64.1717 240.417 60.0446 240.417 54.7882V50.4147H217.995V55.9586H234.257C234.257 56.0255 234.256 56.0922 234.255 56.1586C234.213 59.1454 233.207 61.5426 231.238 63.3504C229.226 65.1984 226.146 66.1224 221.999 66.1224C218.467 66.1224 215.428 65.4037 212.882 63.9664C210.336 62.488 208.385 60.4348 207.03 57.8065C205.716 55.1373 205.059 52.0573 205.059 48.5668C205.059 45.1172 205.737 42.0578 207.092 39.3886C208.447 36.7193 210.357 34.666 212.82 33.2287C215.284 31.7503 218.139 31.0111 221.383 31.0111C225.777 31.0111 229.103 32.0994 231.362 34.2759C233.62 36.4524 234.914 39.368 235.242 43.0229H241.402C241.4 42.9561 241.397 42.8895 241.393 42.8229C241.244 39.8587 240.446 37.0713 239 34.4607C237.522 31.7914 235.304 29.6354 232.347 27.9928C229.432 26.3091 225.879 25.4673 221.691 25.4673C217.132 25.4673 213.128 26.4323 209.679 28.3624C206.229 30.2514 203.56 32.9412 201.671 36.4318C199.823 39.9224 198.899 43.9674 198.899 48.5668C198.899 53.1661 199.803 57.2111 201.61 60.7017C203.458 64.1923 206.106 66.9026 209.556 68.8327C213.005 70.7217 217.05 71.6662 221.691 71.6662C227.563 71.6662 232.142 70.1673 235.427 67.1695ZM276.391 70.9423H270.447V67.2311C270.447 67.1182 270.419 67.0703 270.398 67.0492C270.377 67.028 270.329 66.9999 270.216 66.9999C270.165 66.9999 270.089 67.0248 269.988 67.1262L269.688 67.4259C267.344 70.392 263.957 71.8662 259.559 71.8662C255.496 71.8662 252.279 70.725 249.933 68.421C247.585 66.1152 246.424 62.8753 246.424 58.7305V38.511H252.368V57.8065C252.368 60.69 253.098 62.8498 254.528 64.3197C255.958 65.7893 258.035 66.5383 260.791 66.5383C263.912 66.5383 266.274 65.6079 267.911 63.7717C269.59 61.892 270.447 59.0937 270.447 55.3426V38.511H276.391V70.9423ZM269.538 67.2927L269.846 66.9847C269.97 66.8615 270.093 66.7999 270.216 66.7999C270.503 66.7999 270.647 66.9437 270.647 67.2311V70.7423H276.191V38.711H270.647V55.3426C270.647 59.1206 269.785 61.9747 268.06 63.9048C266.376 65.7938 263.953 66.7383 260.791 66.7383C257.999 66.7383 255.863 65.9786 254.385 64.4592C252.907 62.9398 252.168 60.7222 252.168 57.8065V38.711H246.624V58.7305C246.624 62.8371 247.774 66.0197 250.073 68.2783C252.373 70.5369 255.535 71.6662 259.559 71.6662C263.912 71.6662 267.239 70.2084 269.538 67.2927ZM289.649 38.511V70.9423H283.705V38.511H289.649ZM297.374 45.2632L297.376 45.2611C298.912 42.6868 300.889 40.7702 303.307 39.5193C305.717 38.2313 308.295 37.587 311.038 37.587C315.644 37.587 319.236 39.1044 321.786 42.1555L321.791 42.1613L321.795 42.1674C321.98 42.4266 322.153 42.5149 322.31 42.5149C322.416 42.5149 322.46 42.486 322.483 42.46C322.51 42.4289 322.541 42.3616 322.541 42.2221V26.1913H328.485V70.9423H322.541V67.2311C322.541 67.0916 322.51 67.0244 322.483 66.9932C322.46 66.9672 322.416 66.9383 322.31 66.9383C322.153 66.9383 321.98 67.0266 321.795 67.2858L321.791 67.292L321.786 67.2978C319.236 70.3489 315.644 71.8662 311.038 71.8662C308.296 71.8662 305.718 71.2427 303.307 69.9959L303.305 69.9947C300.888 68.7028 298.912 66.7662 297.376 64.1921L297.374 64.19C295.874 61.6066 295.13 58.4489 295.13 54.7266C295.13 51.0043 295.874 47.8466 297.374 45.2632ZM303.399 39.6966C301.018 40.9285 299.067 42.8175 297.547 45.3636C296.069 47.9097 295.33 51.0307 295.33 54.7266C295.33 58.4225 296.069 61.5435 297.547 64.0896C299.067 66.6357 301.018 68.5452 303.399 69.8183C305.781 71.0502 308.327 71.6662 311.038 71.6662C315.596 71.6662 319.128 70.1673 321.633 67.1695C321.838 66.8821 322.064 66.7383 322.31 66.7383C322.598 66.7383 322.741 66.9026 322.741 67.2311V70.7423H328.285V26.3913H322.741V42.2221C322.741 42.5506 322.598 42.7149 322.31 42.7149C322.064 42.7149 321.838 42.5712 321.633 42.2837C319.128 39.2859 315.596 37.787 311.038 37.787C308.327 37.787 305.781 38.4235 303.399 39.6966ZM319.827 46.058L319.824 46.0552C317.855 43.9654 315.241 42.9149 311.962 42.9149C308.682 42.9149 306.047 43.9654 304.036 46.0566C302.07 48.1035 301.074 50.9841 301.074 54.7266C301.074 58.4681 302.069 61.3699 304.036 63.4583C306.047 65.508 308.682 66.5383 311.962 66.5383C315.242 66.5383 317.856 65.5075 319.825 63.4582L319.969 63.5968C317.957 65.6912 315.288 66.7383 311.962 66.7383C308.635 66.7383 305.945 65.6912 303.892 63.5968C301.88 61.4614 300.874 58.5047 300.874 54.7266C300.874 50.9486 301.88 48.0124 303.892 45.918C305.945 43.7826 308.635 42.7149 311.962 42.7149C315.288 42.7149 317.957 43.7826 319.969 45.918C322.023 48.0124 323.049 50.9486 323.049 54.7266C323.049 58.5047 322.023 61.4614 319.969 63.5968L319.825 63.4582C321.833 61.3696 322.849 58.4678 322.849 54.7266C322.849 50.9852 321.833 48.1051 319.827 46.058ZM341.7 26.1913V70.9423H335.756V26.1913H341.7ZM138.812 33.9831H138.196C136.044 33.9831 134.3 32.2388 134.3 30.0872C134.3 27.9355 136.044 26.1913 138.196 26.1913H138.812C140.963 26.1913 142.708 27.9355 142.708 30.0872C142.708 32.2388 140.963 33.9831 138.812 33.9831ZM286.985 33.9831H286.369C284.218 33.9831 282.473 32.2388 282.473 30.0872C282.473 27.9355 284.218 26.1913 286.369 26.1913H286.985C289.137 26.1913 290.881 27.9355 290.881 30.0872C290.881 32.2388 289.137 33.9831 286.985 33.9831ZM141.276 70.7423H135.732V38.711H141.276V70.7423ZM138.812 26.3913C140.853 26.3913 142.508 28.046 142.508 30.0872C142.508 32.1284 140.853 33.7831 138.812 33.7831H138.196C136.155 33.7831 134.5 32.1284 134.5 30.0872C134.5 28.046 136.154 26.3913 138.196 26.3913H138.812ZM193.326 70.7423H187.783V26.3913H193.326V70.7423ZM289.449 38.711H283.905V70.7423H289.449V38.711ZM290.681 30.0872C290.681 28.046 289.026 26.3913 286.985 26.3913H286.369C284.328 26.3913 282.673 28.046 282.673 30.0872C282.673 32.1284 284.328 33.7831 286.369 33.7831H286.985C289.026 33.7831 290.681 32.1284 290.681 30.0872ZM341.5 26.3913H335.956V70.7423H341.5V26.3913Z" fill="#182232"/>
<path fill-rule="evenodd" clip-rule="evenodd" d="M25.9005 17.4343V33.0724H29.8274V42.112H39.5455V33.0724H46.2899V51.1516L35.6828 71.0327L23.5728 70.8499L11.4628 71.0327L0.855713 51.1516V33.0724H7.56947V42.112H17.3182V33.0724H21.6476V2.46018C21.6476 1.28578 22.5997 0.33374 23.7741 0.33374C24.6213 0.33374 25.3527 0.829166 25.6946 1.5461C26.7694 1.95807 27.852 3.04667 28.9713 4.17218C30.3008 5.50908 31.6822 6.89807 33.1638 7.26705C34.6599 7.63964 35.769 7.24126 37.0185 6.79247C38.3293 6.32163 39.7947 5.79531 42.0235 6.04548C43.6948 6.24212 44.5808 7.33351 45.5716 8.5539C46.889 10.1765 48.3915 12.0271 52.1707 12.306L52.1469 12.3229C49.7271 14.0316 46.4211 16.3662 41.2877 15.9096C39.6823 15.7711 38.5512 15.2536 37.4668 14.7573C35.9213 14.0501 34.4704 13.3862 31.8762 13.9246C29.0683 14.4879 27.6495 15.8172 26.5706 16.8281C26.3347 17.0492 26.115 17.255 25.9005 17.4343Z" fill="#182232"/>
</svg>

