<svg width="133" height="126" viewBox="0 0 133 126" fill="none" xmlns="http://www.w3.org/2000/svg">
<path d="M0.718079 125.027C0.622972 124.806 0.59127 96.6489 0.622972 62.4491L0.718079 0.282104H66.6585H132.599V62.7655V125.249L66.7219 125.344C14.1915 125.407 0.813185 125.344 0.718079 125.027Z" fill="black"/>
<path d="M29.56 74V51.6H32.248V71.568H43.576V74H29.56ZM54.5318 74.448C51.8651 74.448 49.7318 73.68 48.1318 72.144C46.5531 70.5867 45.7638 68.3253 45.7638 65.36V60.24C45.7638 57.2747 46.5531 55.024 48.1318 53.488C49.7318 51.9307 51.8651 51.152 54.5318 51.152C57.2198 51.152 59.3531 51.9307 60.9318 53.488C62.5318 55.024 63.3318 57.2747 63.3318 60.24V65.36C63.3318 68.3253 62.5318 70.5867 60.9318 72.144C59.3531 73.68 57.2198 74.448 54.5318 74.448ZM54.5318 72.048C56.4731 72.048 57.9771 71.472 59.0438 70.32C60.1104 69.1467 60.6438 67.5253 60.6438 65.456V60.144C60.6438 58.0747 60.1104 56.464 59.0438 55.312C57.9771 54.1387 56.4731 53.552 54.5318 53.552C52.6118 53.552 51.1184 54.1387 50.0518 55.312C48.9851 56.464 48.4518 58.0747 48.4518 60.144V65.456C48.4518 67.5253 48.9851 69.1467 50.0518 70.32C51.1184 71.472 52.6118 72.048 54.5318 72.048ZM75.618 74.448C73.954 74.448 72.482 74.1067 71.202 73.424C69.9433 72.72 68.9513 71.696 68.226 70.352C67.522 69.008 67.17 67.344 67.17 65.36V60.24C67.17 57.2747 67.9593 55.024 69.538 53.488C71.1167 51.9307 73.2393 51.152 75.906 51.152C78.5513 51.152 80.5673 51.8773 81.954 53.328C83.3407 54.7787 84.034 56.72 84.034 59.152V59.312H81.378V59.088C81.378 58.0213 81.186 57.072 80.802 56.24C80.418 55.408 79.8207 54.7573 79.01 54.288C78.1993 53.7973 77.1647 53.552 75.906 53.552C74.0073 53.552 72.5247 54.1387 71.458 55.312C70.3913 56.464 69.858 58.0853 69.858 60.176V65.424C69.858 67.5147 70.3913 69.1467 71.458 70.32C72.5247 71.472 74.018 72.048 75.938 72.048C77.8153 72.048 79.1913 71.5147 80.066 70.448C80.962 69.3813 81.41 67.9627 81.41 66.192V65.648H74.626V63.344H84.034V74H81.602V71.568H81.154C80.9193 72.0373 80.5887 72.496 80.162 72.944C79.7353 73.392 79.1593 73.7547 78.434 74.032C77.7087 74.3093 76.77 74.448 75.618 74.448ZM97.063 74.448C94.3963 74.448 92.263 73.68 90.663 72.144C89.0843 70.5867 88.295 68.3253 88.295 65.36V60.24C88.295 57.2747 89.0843 55.024 90.663 53.488C92.263 51.9307 94.3963 51.152 97.063 51.152C99.751 51.152 101.884 51.9307 103.463 53.488C105.063 55.024 105.863 57.2747 105.863 60.24V65.36C105.863 68.3253 105.063 70.5867 103.463 72.144C101.884 73.68 99.751 74.448 97.063 74.448ZM97.063 72.048C99.0043 72.048 100.508 71.472 101.575 70.32C102.642 69.1467 103.175 67.5253 103.175 65.456V60.144C103.175 58.0747 102.642 56.464 101.575 55.312C100.508 54.1387 99.0043 53.552 97.063 53.552C95.143 53.552 93.6497 54.1387 92.583 55.312C91.5163 56.464 90.983 58.0747 90.983 60.144V65.456C90.983 67.5253 91.5163 69.1467 92.583 70.32C93.6497 71.472 95.143 72.048 97.063 72.048Z" fill="white"/>
</svg>
