<svg width="595" height="204" viewBox="0 0 595 204" fill="none" xmlns="http://www.w3.org/2000/svg">
<mask id="path-1-inside-1_66_5881" fill="white">
<path fill-rule="evenodd" clip-rule="evenodd" d="M2.60455 -1.87006C1.2858 -1.87006 0.216736 -0.801001 0.216736 0.517754V203.482C0.216736 204.801 1.28578 205.87 2.60454 205.87H592.395C593.714 205.87 594.783 204.801 594.783 203.482V0.517761C594.783 -0.800994 593.714 -1.87006 592.395 -1.87006H2.60455ZM95.2112 44.9173H74.122L60.521 158.004H77.4841L79.4707 133.4H88.9456L90.9323 158.004H108.812L95.2112 44.9173ZM80.6933 118.424L82.5272 95.1952L83.9025 75.6342H84.361L85.7364 95.1952L87.723 118.424H80.6933ZM128.101 158.004H146.287V115.367H151.941C164.931 115.367 172.877 107.726 172.877 94.1254V66.3121C172.877 52.5583 164.931 44.9173 151.941 44.9173H128.101V158.004ZM150.413 101.766H146.439V58.5183H150.413C153.469 58.5183 154.692 61.2691 154.692 66.3121V94.1254C154.692 99.0157 153.469 101.766 150.413 101.766ZM193.826 44.9173V158.004H229.28V143.028H212.011V108.338H227.446V93.3613H212.011V59.8937H229.28V44.9173H193.826ZM291.904 136.457V112.158H274.788V137.985C274.788 142.569 273.566 145.32 270.662 145.32C267.606 145.32 266.383 142.569 266.383 137.985V65.0896C266.383 60.3521 267.606 57.6014 270.662 57.6014C273.566 57.6014 274.788 60.3521 274.788 65.0896V89.8465H291.904V66.465C291.904 51.7942 284.569 43.6947 270.662 43.6947C256.755 43.6947 248.197 51.7942 248.197 66.465V136.457C248.197 151.127 256.755 159.227 270.662 159.227C284.569 159.227 291.904 151.127 291.904 136.457ZM341.156 108.643V158.004H359.342V44.9173H341.156V93.2085H331.376V44.9173H313.038V158.004H331.376V108.643H341.156ZM413.239 44.9173H392.149L378.548 158.004H395.512L397.498 133.4H406.973L408.96 158.004H426.84L413.239 44.9173ZM398.721 118.424L400.555 95.1952L401.93 75.6342H402.388L403.764 95.1952L405.75 118.424H398.721ZM446.128 44.9173V158.004H464.467V44.9173H446.128ZM515.518 101.614L505.891 44.9173H486.483V158.004H502.223V91.8331H502.529L515.366 158.004H531.565V44.9173H515.824V101.614H515.518Z"/>
</mask>
<path fill-rule="evenodd" clip-rule="evenodd" d="M2.60455 -1.87006C1.2858 -1.87006 0.216736 -0.801001 0.216736 0.517754V203.482C0.216736 204.801 1.28578 205.87 2.60454 205.87H592.395C593.714 205.87 594.783 204.801 594.783 203.482V0.517761C594.783 -0.800994 593.714 -1.87006 592.395 -1.87006H2.60455ZM95.2112 44.9173H74.122L60.521 158.004H77.4841L79.4707 133.4H88.9456L90.9323 158.004H108.812L95.2112 44.9173ZM80.6933 118.424L82.5272 95.1952L83.9025 75.6342H84.361L85.7364 95.1952L87.723 118.424H80.6933ZM128.101 158.004H146.287V115.367H151.941C164.931 115.367 172.877 107.726 172.877 94.1254V66.3121C172.877 52.5583 164.931 44.9173 151.941 44.9173H128.101V158.004ZM150.413 101.766H146.439V58.5183H150.413C153.469 58.5183 154.692 61.2691 154.692 66.3121V94.1254C154.692 99.0157 153.469 101.766 150.413 101.766ZM193.826 44.9173V158.004H229.28V143.028H212.011V108.338H227.446V93.3613H212.011V59.8937H229.28V44.9173H193.826ZM291.904 136.457V112.158H274.788V137.985C274.788 142.569 273.566 145.32 270.662 145.32C267.606 145.32 266.383 142.569 266.383 137.985V65.0896C266.383 60.3521 267.606 57.6014 270.662 57.6014C273.566 57.6014 274.788 60.3521 274.788 65.0896V89.8465H291.904V66.465C291.904 51.7942 284.569 43.6947 270.662 43.6947C256.755 43.6947 248.197 51.7942 248.197 66.465V136.457C248.197 151.127 256.755 159.227 270.662 159.227C284.569 159.227 291.904 151.127 291.904 136.457ZM341.156 108.643V158.004H359.342V44.9173H341.156V93.2085H331.376V44.9173H313.038V158.004H331.376V108.643H341.156ZM413.239 44.9173H392.149L378.548 158.004H395.512L397.498 133.4H406.973L408.96 158.004H426.84L413.239 44.9173ZM398.721 118.424L400.555 95.1952L401.93 75.6342H402.388L403.764 95.1952L405.75 118.424H398.721ZM446.128 44.9173V158.004H464.467V44.9173H446.128ZM515.518 101.614L505.891 44.9173H486.483V158.004H502.223V91.8331H502.529L515.366 158.004H531.565V44.9173H515.824V101.614H515.518Z" fill="#0054FA"/>
<path d="M74.122 44.9173V28.2026H59.2971L57.5269 42.9214L74.122 44.9173ZM95.2112 44.9173L111.806 42.9214L110.036 28.2026H95.2112V44.9173ZM60.521 158.004L43.9259 156.008L41.6756 174.719H60.521V158.004ZM77.4841 158.004V174.719H92.9036L94.1446 159.35L77.4841 158.004ZM79.4707 133.4V116.686H64.0513L62.8102 132.055L79.4707 133.4ZM88.9456 133.4L105.606 132.055L104.365 116.686H88.9456V133.4ZM90.9323 158.004L74.2718 159.35L75.5128 174.719H90.9323V158.004ZM108.812 158.004V174.719H127.658L125.407 156.008L108.812 158.004ZM82.5272 95.1952L99.19 96.5107L99.1957 96.4391L99.2007 96.3675L82.5272 95.1952ZM80.6933 118.424L64.0304 117.108L62.607 135.139H80.6933V118.424ZM83.9025 75.6342V58.9195H68.3218L67.229 74.4618L83.9025 75.6342ZM84.361 75.6342L101.035 74.4618L99.9417 58.9195H84.361V75.6342ZM85.7364 95.1952L69.0628 96.3675L69.0717 96.4936L69.0825 96.6195L85.7364 95.1952ZM87.723 118.424V135.139H105.928L104.377 117L87.723 118.424ZM146.287 158.004V174.719H163.001V158.004H146.287ZM128.101 158.004H111.386V174.719H128.101V158.004ZM146.287 115.367V98.6527H129.572V115.367H146.287ZM128.101 44.9173V28.2026H111.386V44.9173H128.101ZM146.439 101.766H129.725V118.481H146.439V101.766ZM146.439 58.5183V41.8036H129.725V58.5183H146.439ZM193.826 158.004H177.111V174.719H193.826V158.004ZM193.826 44.9173V28.2026H177.111V44.9173H193.826ZM229.28 158.004V174.719H245.995V158.004H229.28ZM229.28 143.028H245.995V126.313H229.28V143.028ZM212.011 143.028H195.297V159.743H212.011V143.028ZM212.011 108.338V91.623H195.297V108.338H212.011ZM227.446 108.338V125.052H244.161V108.338H227.446ZM227.446 93.3613H244.161V76.6466H227.446V93.3613ZM212.011 93.3613H195.297V110.076H212.011V93.3613ZM212.011 59.8937V43.179H195.297V59.8937H212.011ZM229.28 59.8937V76.6084H245.995V59.8937H229.28ZM229.28 44.9173H245.995V28.2026H229.28V44.9173ZM291.904 112.158H308.619V95.4435H291.904V112.158ZM274.788 112.158V95.4435H258.074V112.158H274.788ZM274.788 89.8465H258.074V106.561H274.788V89.8465ZM291.904 89.8465V106.561H308.619V89.8465H291.904ZM341.156 158.004H324.442V174.719H341.156V158.004ZM341.156 108.643H357.871V91.9286H341.156V108.643ZM359.342 158.004V174.719H376.057V158.004H359.342ZM359.342 44.9173H376.057V28.2026H359.342V44.9173ZM341.156 44.9173V28.2026H324.442V44.9173H341.156ZM341.156 93.2085V109.923H357.871V93.2085H341.156ZM331.376 93.2085H314.661V109.923H331.376V93.2085ZM331.376 44.9173H348.091V28.2026H331.376V44.9173ZM313.038 44.9173V28.2026H296.323V44.9173H313.038ZM313.038 158.004H296.323V174.719H313.038V158.004ZM331.376 158.004V174.719H348.091V158.004H331.376ZM331.376 108.643V91.9286H314.661V108.643H331.376ZM392.149 44.9173V28.2026H377.325L375.554 42.9214L392.149 44.9173ZM413.239 44.9173L429.834 42.9214L428.064 28.2026H413.239V44.9173ZM378.548 158.004L361.953 156.008L359.703 174.719H378.548V158.004ZM395.512 158.004V174.719H410.931L412.172 159.35L395.512 158.004ZM397.498 133.4V116.686H382.079L380.838 132.055L397.498 133.4ZM406.973 133.4L423.634 132.055L422.393 116.686H406.973V133.4ZM408.96 158.004L392.299 159.35L393.54 174.719H408.96V158.004ZM426.84 158.004V174.719H445.685L443.435 156.008L426.84 158.004ZM400.555 95.1952L417.217 96.5107L417.223 96.4391L417.228 96.3675L400.555 95.1952ZM398.721 118.424L382.058 117.108L380.634 135.139H398.721V118.424ZM401.93 75.6342V58.9195H386.349L385.256 74.4618L401.93 75.6342ZM402.388 75.6342L419.062 74.4618L417.969 58.9195H402.388V75.6342ZM403.764 95.1952L387.09 96.3676L387.099 96.4936L387.11 96.6195L403.764 95.1952ZM405.75 118.424V135.139H423.956L422.404 117L405.75 118.424ZM446.128 158.004H429.414V174.719H446.128V158.004ZM446.128 44.9173V28.2026H429.414V44.9173H446.128ZM464.467 158.004V174.719H481.182V158.004H464.467ZM464.467 44.9173H481.182V28.2026H464.467V44.9173ZM505.891 44.9173L522.37 42.119L520.006 28.2026H505.891V44.9173ZM515.518 101.614L499.04 104.412L501.403 118.328H515.518V101.614ZM486.483 44.9173V28.2026H469.768V44.9173H486.483ZM486.483 158.004H469.768V174.719H486.483V158.004ZM502.223 158.004V174.719H518.938V158.004H502.223ZM502.223 91.8331V75.1184H485.508V91.8331H502.223ZM502.529 91.8331L518.938 88.6499L516.312 75.1184H502.529V91.8331ZM515.366 158.004L498.957 161.188L501.582 174.719H515.366V158.004ZM531.565 158.004V174.719H548.279V158.004H531.565ZM531.565 44.9173H548.279V28.2026H531.565V44.9173ZM515.824 44.9173V28.2026H499.109V44.9173H515.824ZM515.824 101.614V118.328H532.539V101.614H515.824ZM16.9315 0.517754C16.9315 8.43035 10.517 14.8447 2.60455 14.8447V-18.5848C-7.94543 -18.5848 -16.498 -10.0323 -16.498 0.517754H16.9315ZM16.9315 203.482V0.517754H-16.498V203.482H16.9315ZM2.60454 189.155C10.5172 189.155 16.9315 195.57 16.9315 203.482H-16.498C-16.498 214.032 -7.94562 222.585 2.60454 222.585V189.155ZM592.395 189.155H2.60454V222.585H592.395V189.155ZM578.069 203.482C578.069 195.57 584.483 189.155 592.395 189.155V222.585C602.945 222.585 611.498 214.032 611.498 203.482H578.069ZM578.069 0.517761V203.482H611.498V0.517761H578.069ZM592.395 14.8447C584.483 14.8447 578.069 8.43015 578.069 0.517761H611.498C611.498 -10.0321 602.946 -18.5848 592.395 -18.5848V14.8447ZM2.60455 14.8447H592.395V-18.5848H2.60455V14.8447ZM74.122 61.632H95.2112V28.2026H74.122V61.632ZM77.1162 160L90.7172 46.9132L57.5269 42.9214L43.9259 156.008L77.1162 160ZM77.4841 141.29H60.521V174.719H77.4841V141.29ZM62.8102 132.055L60.8236 156.659L94.1446 159.35L96.1312 134.746L62.8102 132.055ZM88.9456 116.686H79.4707V150.115H88.9456V116.686ZM107.593 156.659L105.606 132.055L72.2851 134.746L74.2718 159.35L107.593 156.659ZM108.812 141.29H90.9323V174.719H108.812V141.29ZM78.6161 46.9132L92.2171 160L125.407 156.008L111.806 42.9214L78.6161 46.9132ZM65.8643 93.8797L64.0304 117.108L97.3562 119.739L99.19 96.5107L65.8643 93.8797ZM67.229 74.4618L65.8536 94.0228L99.2007 96.3675L100.576 76.8065L67.229 74.4618ZM84.361 58.9195H83.9025V92.3489H84.361V58.9195ZM102.41 94.0228L101.035 74.4618L67.6874 76.8065L69.0628 96.3675L102.41 94.0228ZM104.377 117L102.39 93.7708L69.0825 96.6195L71.0691 119.848L104.377 117ZM80.6933 135.139H87.723V101.709H80.6933V135.139ZM146.287 141.29H128.101V174.719H146.287V141.29ZM129.572 115.367V158.004H163.001V115.367H129.572ZM151.941 98.6527H146.287V132.082H151.941V98.6527ZM156.163 94.1254C156.163 97.6806 155.187 98.3023 155.461 98.0277C155.728 97.7613 155.176 98.6527 151.941 98.6527V132.082C161.696 132.082 171.612 129.153 179.099 121.666C186.595 114.171 189.592 104.171 189.592 94.1254H156.163ZM156.163 66.3121V94.1254H189.592V66.3121H156.163ZM151.941 61.632C155.175 61.632 155.705 62.5214 155.43 62.2449C155.158 61.9714 156.163 62.6316 156.163 66.3121H189.592C189.592 56.2389 186.623 46.2016 179.131 38.6692C171.635 31.1337 161.697 28.2026 151.941 28.2026V61.632ZM128.101 61.632H151.941V28.2026H128.101V61.632ZM144.816 158.004V44.9173H111.386V158.004H144.816ZM146.439 118.481H150.413V85.0517H146.439V118.481ZM129.725 58.5183V101.766H163.154V58.5183H129.725ZM150.413 41.8036H146.439V75.233H150.413V41.8036ZM171.406 66.3121C171.406 63.0537 171.117 57.7757 168.517 52.7924C167.063 50.0038 164.73 47.0175 161.162 44.811C157.566 42.5872 153.762 41.8036 150.413 41.8036V75.233C148.591 75.233 146.086 74.7932 143.579 73.2429C141.1 71.7097 139.647 69.7262 138.879 68.2557C138.17 66.8952 137.996 65.8961 137.969 65.7345C137.934 65.5289 137.977 65.674 137.977 66.3121H171.406ZM171.406 94.1254V66.3121H137.977V94.1254H171.406ZM150.413 118.481C153.763 118.481 157.544 117.698 161.117 115.504C164.663 113.327 167.001 110.376 168.471 107.6C171.105 102.624 171.406 97.3642 171.406 94.1254H137.977C137.977 95.777 137.667 94.3378 138.926 91.9592C139.708 90.4828 141.167 88.5252 143.625 87.0164C146.109 85.4912 148.591 85.0517 150.413 85.0517V118.481ZM210.54 158.004V44.9173H177.111V158.004H210.54ZM229.28 141.29H193.826V174.719H229.28V141.29ZM212.565 143.028V158.004H245.995V143.028H212.565ZM212.011 159.743H229.28V126.313H212.011V159.743ZM195.297 108.338V143.028H228.726V108.338H195.297ZM227.446 91.623H212.011V125.052H227.446V91.623ZM210.731 93.3613V108.338H244.161V93.3613H210.731ZM212.011 110.076H227.446V76.6466H212.011V110.076ZM195.297 59.8937V93.3613H228.726V59.8937H195.297ZM229.28 43.179H212.011V76.6084H229.28V43.179ZM212.565 44.9173V59.8937H245.995V44.9173H212.565ZM193.826 61.632H229.28V28.2026H193.826V61.632ZM275.189 112.158V136.457H308.619V112.158H275.189ZM274.788 128.873H291.904V95.4435H274.788V128.873ZM291.503 137.985V112.158H258.074V137.985H291.503ZM270.662 162.035C274.134 162.035 277.926 161.176 281.443 158.96C284.898 156.783 287.16 153.881 288.581 151.203C291.163 146.334 291.503 141.223 291.503 137.985H258.074C258.074 139.332 257.803 137.888 259.047 135.541C259.799 134.123 261.212 132.196 263.621 130.677C266.091 129.121 268.642 128.606 270.662 128.606V162.035ZM249.668 137.985C249.668 141.195 249.998 146.417 252.703 151.376C254.2 154.121 256.549 156.999 260.049 159.118C263.575 161.252 267.312 162.035 270.662 162.035V128.606C272.484 128.606 274.922 129.044 277.359 130.519C279.771 131.979 281.24 133.883 282.05 135.368C283.38 137.805 283.098 139.359 283.098 137.985H249.668ZM249.668 65.0896V137.985H283.098V65.0896H249.668ZM270.662 40.8867C267.312 40.8867 263.553 41.6696 260.003 43.8336C256.48 45.9817 254.136 48.8966 252.653 51.6576C249.983 56.626 249.668 61.867 249.668 65.0896H283.098C283.098 63.5747 283.395 65.0716 282.1 67.4803C281.305 68.9614 279.84 70.8925 277.405 72.3769C274.944 73.877 272.484 74.3161 270.662 74.3161V40.8867ZM291.503 65.0896C291.503 61.8383 291.177 56.7075 288.629 51.8297C287.222 49.1368 284.965 46.1996 281.489 43.993C277.949 41.7464 274.134 40.8867 270.662 40.8867V74.3161C268.642 74.3161 266.068 73.8002 263.575 72.2174C261.144 70.6747 259.737 68.7212 258.999 67.3082C257.788 64.9901 258.074 63.6035 258.074 65.0896H291.503ZM291.503 89.8465V65.0896H258.074V89.8465H291.503ZM291.904 73.1318H274.788V106.561H291.904V73.1318ZM275.189 66.465V89.8465H308.619V66.465H275.189ZM270.662 60.4095C272.544 60.4095 273.567 60.6859 273.993 60.8452C274.349 60.9782 274.328 61.0363 274.232 60.9332C274.001 60.6834 275.189 61.7077 275.189 66.465H308.619C308.619 56.5515 306.139 46.1907 298.764 38.2234C291.19 30.0423 280.876 26.98 270.662 26.98V60.4095ZM264.912 66.465C264.912 64.4036 265.214 63.1117 265.472 62.3969C265.714 61.7272 265.938 61.4927 266.005 61.4266C266.073 61.3582 266.298 61.1488 266.925 60.924C267.595 60.6838 268.788 60.4095 270.662 60.4095V26.98C260.495 26.98 250.197 29.9967 242.425 37.7301C234.632 45.4844 231.483 55.8876 231.483 66.465H264.912ZM264.912 136.457V66.465H231.483V136.457H264.912ZM270.662 142.512C268.788 142.512 267.595 142.238 266.925 141.998C266.298 141.773 266.073 141.563 266.005 141.495C265.938 141.429 265.714 141.194 265.472 140.525C265.214 139.81 264.912 138.518 264.912 136.457H231.483C231.483 147.034 234.632 157.437 242.425 165.192C250.197 172.925 260.495 175.942 270.662 175.942V142.512ZM275.189 136.457C275.189 141.214 274.001 142.238 274.232 141.988C274.328 141.885 274.349 141.943 273.993 142.076C273.567 142.236 272.544 142.512 270.662 142.512V175.942C280.876 175.942 291.19 172.879 298.764 164.698C306.139 156.731 308.619 146.37 308.619 136.457H275.189ZM357.871 158.004V108.643H324.442V158.004H357.871ZM359.342 141.29H341.156V174.719H359.342V141.29ZM342.627 44.9173V158.004H376.057V44.9173H342.627ZM341.156 61.632H359.342V28.2026H341.156V61.632ZM357.871 93.2085V44.9173H324.442V93.2085H357.871ZM331.376 109.923H341.156V76.4938H331.376V109.923ZM314.661 44.9173V93.2085H348.091V44.9173H314.661ZM313.038 61.632H331.376V28.2026H313.038V61.632ZM329.752 158.004V44.9173H296.323V158.004H329.752ZM331.376 141.29H313.038V174.719H331.376V141.29ZM314.661 108.643V158.004H348.091V108.643H314.661ZM341.156 91.9286H331.376V125.358H341.156V91.9286ZM392.149 61.632H413.239V28.2026H392.149V61.632ZM395.144 160L408.745 46.9132L375.554 42.9214L361.953 156.008L395.144 160ZM395.512 141.29H378.548V174.719H395.512V141.29ZM380.838 132.055L378.851 156.659L412.172 159.35L414.159 134.746L380.838 132.055ZM406.973 116.686H397.498V150.115H406.973V116.686ZM425.62 156.659L423.634 132.055L390.313 134.746L392.299 159.35L425.62 156.659ZM426.84 141.29H408.96V174.719H426.84V141.29ZM396.644 46.9132L410.245 160L443.435 156.008L429.834 42.9214L396.644 46.9132ZM383.892 93.8797L382.058 117.108L415.384 119.739L417.217 96.5107L383.892 93.8797ZM385.256 74.4618L383.881 94.0228L417.228 96.3675L418.604 76.8065L385.256 74.4618ZM402.388 58.9195H401.93V92.3489H402.388V58.9195ZM420.437 94.0228L419.062 74.4618L385.715 76.8065L387.09 96.3676L420.437 94.0228ZM422.404 117L420.418 93.7708L387.11 96.6195L389.097 119.848L422.404 117ZM398.721 135.139H405.75V101.709H398.721V135.139ZM462.843 158.004V44.9173H429.414V158.004H462.843ZM464.467 141.29H446.128V174.719H464.467V141.29ZM447.752 44.9173V158.004H481.182V44.9173H447.752ZM446.128 61.632H464.467V28.2026H446.128V61.632ZM489.412 47.7156L499.04 104.412L531.997 98.8153L522.37 42.119L489.412 47.7156ZM486.483 61.632H505.891V28.2026H486.483V61.632ZM503.197 158.004V44.9173H469.768V158.004H503.197ZM502.223 141.29H486.483V174.719H502.223V141.29ZM485.508 91.8331V158.004H518.938V91.8331H485.508ZM502.529 75.1184H502.223V108.548H502.529V75.1184ZM531.774 154.821L518.938 88.6499L486.12 95.0164L498.957 161.188L531.774 154.821ZM531.565 141.29H515.366V174.719H531.565V141.29ZM514.85 44.9173V158.004H548.279V44.9173H514.85ZM515.824 61.632H531.565V28.2026H515.824V61.632ZM532.539 101.614V44.9173H499.109V101.614H532.539ZM515.518 118.328H515.824V84.8989H515.518V118.328Z" fill="#0054FA" mask="url(#path-1-inside-1_66_5881)"/>
</svg>
