<svg width="422" height="422" viewBox="0 0 422 422" fill="none" xmlns="http://www.w3.org/2000/svg">
<rect x="0.873108" y="0.608643" width="421.06" height="421.06" fill="#0054FA"/>
<mask id="path-2-inside-1_88_1157" fill="white">
<rect x="82.7195" y="112.25" width="257.368" height="197.373" rx="2.31863"/>
</mask>
<rect x="82.7195" y="112.25" width="257.368" height="197.373" rx="2.31863" stroke="white" stroke-width="32.4609" mask="url(#path-2-inside-1_88_1157)"/>
<path d="M142.183 157.626H162.661L175.868 267.437H158.506L156.577 243.545H147.376L145.447 267.437H128.976L142.183 157.626ZM150.344 206.447L148.564 229.003H155.39L153.46 206.447L152.125 187.453H151.68L150.344 206.447ZM212.256 267.437H194.598V157.626H217.747C230.36 157.626 238.077 165.046 238.077 178.401V205.408C238.077 218.615 230.36 226.035 217.747 226.035H212.256V267.437ZM212.405 212.828H216.263C219.231 212.828 220.418 210.157 220.418 205.408V178.401C220.418 173.504 219.231 170.833 216.263 170.833H212.405V212.828ZM258.418 267.437V157.626H292.845V172.168H276.077V204.666H291.064V219.209H276.077V252.894H292.845V267.437H258.418Z" fill="white"/>
</svg>
