<svg width="254" height="246" viewBox="0 0 254 246" fill="none" xmlns="http://www.w3.org/2000/svg">
<path d="M126.633 52.1521C150.737 52.1521 170.276 40.6431 170.276 26.4462C170.276 12.2492 150.737 0.740234 126.633 0.740234C102.53 0.740234 82.9902 12.2492 82.9902 26.4462C82.9902 40.6431 102.53 52.1521 126.633 52.1521Z" fill="black"/>
<path d="M126.633 245.74C150.737 245.74 170.276 234.231 170.276 220.034C170.276 205.837 150.737 194.328 126.633 194.328C102.53 194.328 82.9902 205.837 82.9902 220.034C82.9902 234.231 102.53 245.74 126.633 245.74Z" fill="black"/>
<path d="M65.8044 87.6934C77.8561 66.5654 77.7812 43.6848 65.637 36.5881C53.4928 29.4915 33.8781 40.866 21.8264 61.994C9.77472 83.1219 9.84969 106.003 21.9939 113.099C34.1381 120.196 53.7527 108.821 65.8044 87.6934Z" fill="black"/>
<path d="M231.458 184.487C243.51 163.359 243.432 140.477 231.285 133.379C219.138 126.28 199.521 137.653 187.469 158.781C175.417 179.909 175.495 202.791 187.642 209.89C199.789 216.988 219.406 205.615 231.458 184.487Z" fill="black"/>
<path d="M65.6377 209.897C77.785 202.798 77.8624 179.916 65.8107 158.788C53.759 137.66 34.1419 126.287 21.9946 133.386C9.84731 140.484 9.76983 163.366 21.8215 184.494C33.8732 205.622 53.4904 216.995 65.6377 209.897Z" fill="black"/>
<path d="M231.281 113.094C243.429 105.996 243.506 83.1138 231.454 61.9859C219.403 40.8579 199.785 29.4848 187.638 36.5833C175.491 43.6818 175.413 66.5639 187.465 87.6918C199.517 108.82 219.134 120.193 231.281 113.094Z" fill="black"/>
</svg>
