<svg width="827" height="699" viewBox="0 0 827 699" fill="none" xmlns="http://www.w3.org/2000/svg">
<path d="M242.444 637.983C225.293 682.012 182.657 706.512 147.214 692.706C111.772 678.899 96.9442 632.014 114.096 587.985C131.247 543.956 173.883 519.456 209.325 533.262C244.768 547.069 259.595 593.954 242.444 637.983Z" fill="#FF2670"/>
<ellipse cx="352.481" cy="457.035" rx="54.4973" ry="377.974" transform="rotate(-58.9869 352.481 457.035)" fill="#ED1166"/>
<ellipse cx="447.944" cy="503.871" rx="17.3271" ry="205.579" transform="rotate(-58.9869 447.944 503.871)" fill="#C80858"/>
<ellipse cx="530.726" cy="293.348" rx="168.992" ry="247.517" transform="rotate(-46.1454 530.726 293.348)" fill="#C80858"/>
<path fill-rule="evenodd" clip-rule="evenodd" d="M572.883 116.317C598.861 130.429 624.296 148.896 647.809 171.488C691.459 213.426 721.171 262.547 735.115 310.109C677.355 423.578 590.415 493.376 534.69 468.066C475.508 441.185 473.944 317.211 531.195 191.162C543.594 163.864 557.735 138.707 572.883 116.317Z" fill="#A80950"/>
<path d="M807.949 81.5557C841.396 145.678 822.202 221.815 765.077 251.611C707.953 281.408 634.53 253.582 601.083 189.459C567.636 125.337 586.831 49.2002 643.955 19.4035C701.08 -10.3933 774.502 17.4333 807.949 81.5557Z" fill="#FF2670"/>
</svg>
