<svg width="49" height="50" viewBox="0 0 49 50" fill="none" xmlns="http://www.w3.org/2000/svg">
<g clip-path="url(#clip0_1799_47)">
<path d="M15.3536 27.1016L9.93656 5.84112H14.2178L18.6155 24.3348L17.4796 23.6649H20.392L19.1106 24.3348L22.5763 6.65659H26.1294L21.8191 27.1016H15.3536ZM28.0516 27.1016L23.3627 6.65659H27.0614L31.0514 24.3348L29.7991 23.6649H32.6532L31.5465 24.3348L35.42 5.84112H39.4682L34.6336 27.1016H28.0516Z" fill="black"/>
<path d="M16.8923 46.306L11.9711 26.9915H15.8605L19.8557 43.7925L18.8238 43.184H21.4696L20.3055 43.7925L23.454 27.7323H26.6819L22.7661 46.306H16.8923ZM28.4282 46.306L24.1684 27.7323H27.5286L31.1534 43.7925L30.0157 43.184H32.6086L31.6032 43.7925L35.1221 26.9915H38.7998L34.4077 46.306H28.4282Z" fill="black"/>
<rect x="3.04175" y="24.1174" width="12.5441" height="3.31354" fill="black"/>
<rect x="34.047" y="24.1174" width="12.5441" height="3.31354" fill="black"/>
</g>
<rect x="2.34922" y="2.00681" width="44.6861" height="45.6413" rx="22.343" stroke="black" stroke-width="3.07686"/>
<defs>
<clipPath id="clip0_1799_47">
<rect x="0.810791" y="0.468384" width="47.7629" height="48.7182" rx="23.8815" fill="white"/>
</clipPath>
</defs>
</svg>
